<svg width="30" height="30" viewBox="0 0 30 30" fill="none" xmlns="http://www.w3.org/2000/svg">
<circle cx="15" cy="15" r="15" fill="#323232"/>
<g clip-path="url(#clip0_1_1138)">
<path d="M12.5 23.0001C13.88 23.0001 15 21.8054 15 20.3334V17.6667H12.5C11.12 17.6667 10 18.8614 10 20.3334C10 21.8054 11.12 23.0001 12.5 23.0001Z" fill="#0ACF83"/>
<path d="M10 14.9999C10 13.5279 11.12 12.3333 12.5 12.3333H15V17.6666H12.5C11.12 17.6666 10 16.4719 10 14.9999Z" fill="#A259FF"/>
<path d="M10 9.66667C10 8.19467 11.12 7 12.5 7H15V12.3333H12.5C11.12 12.3333 10 11.1387 10 9.66667Z" fill="#F24E1E"/>
<path d="M15 7H17.5C18.88 7 20 8.19467 20 9.66667C20 11.1387 18.88 12.3333 17.5 12.3333H15V7Z" fill="#FF7262"/>
<path d="M20 14.9999C20 16.4719 18.88 17.6666 17.5 17.6666C16.12 17.6666 15 16.4719 15 14.9999C15 13.5279 16.12 12.3333 17.5 12.3333C18.88 12.3333 20 13.5279 20 14.9999Z" fill="#1ABCFE"/>
</g>
<defs>
<clipPath id="clip0_1_1138">
<rect width="10" height="16" fill="white" transform="translate(10 7)"/>
</clipPath>
</defs>
</svg>
