<svg width="25" height="25" viewBox="0 0 25 25" fill="none" xmlns="http://www.w3.org/2000/svg">
<g clip-path="url(#clip0_1_1065)">
<path d="M1.56251 1.70098C-0.40207 3.7416 1.37947e-05 5.90931 1.37947e-05 12.4947C1.37947e-05 19.0947 -0.16457 20.3062 0.627097 21.9479C1.28856 23.3208 2.5521 24.352 4.0396 24.7364C5.23126 25.0426 6.02293 24.9999 12.4771 24.9999C17.8875 24.9999 19.5708 25.0968 20.974 24.7343C23.0531 24.1979 24.7448 22.5114 24.9761 19.5708C25.0083 19.1604 25.0083 5.83639 24.975 5.41764C24.7292 2.28535 22.8011 0.480145 20.2604 0.11452C19.6771 0.0301448 19.5604 0.00514476 16.5729 -6.35721e-05C5.97606 0.00514476 3.65314 -0.46673 1.56251 1.70098Z" fill="url(#paint0_linear_1_1065)"/>
<path d="M12.4979 3.26989C8.71564 3.26989 5.12397 2.93344 3.75209 6.45427C3.18543 7.90844 3.26772 9.79698 3.26772 12.5011C3.26772 14.8741 3.19168 17.1043 3.75209 18.547C5.12084 22.0699 8.74168 21.7324 12.4958 21.7324C16.1177 21.7324 19.8521 22.1095 21.2406 18.547C21.8083 17.0782 21.725 15.2178 21.725 12.5011C21.725 8.8949 21.924 6.56677 20.175 4.81885C18.4042 3.04802 16.0094 3.26989 12.4938 3.26989H12.4979ZM11.6708 4.93344C16.1979 4.92614 19.8073 4.30114 20.0104 8.76989C20.0854 10.4251 20.0854 14.573 20.0104 16.2282C19.8136 20.5376 16.5323 20.0647 12.499 20.0647C8.9448 20.0647 7.1823 20.1907 5.9948 19.0022C4.78959 17.797 4.93334 16.0741 4.93334 12.497C4.93334 8.25635 4.5323 5.17823 8.7698 4.98344C9.62084 4.94489 9.95105 4.93344 11.6708 4.93135V4.93344ZM17.425 6.46573C16.8136 6.46573 16.3177 6.96156 16.3177 7.57302C16.3177 8.18448 16.8136 8.68031 17.425 8.68031C18.0365 8.68031 18.5323 8.18448 18.5323 7.57302C18.5323 6.96156 18.0365 6.46573 17.425 6.46573ZM12.4979 7.76052C9.88022 7.76052 7.75834 9.88344 7.75834 12.5011C7.75834 15.1189 9.88022 17.2407 12.4979 17.2407C15.1156 17.2407 17.2365 15.1189 17.2365 12.5011C17.2365 9.88344 15.1156 7.76052 12.4979 7.76052ZM12.4979 9.42406C14.1969 9.42406 15.574 10.8022 15.574 12.5011C15.574 14.2001 14.1969 15.5782 12.4979 15.5782C10.799 15.5782 9.42189 14.2001 9.42189 12.5011C9.42189 10.8011 10.799 9.42406 12.4979 9.42406Z" fill="white"/>
</g>
<defs>
<linearGradient id="paint0_linear_1_1065" x1="1.62977" y1="23.3784" x2="24.8359" y2="3.29287" gradientUnits="userSpaceOnUse">
<stop stop-color="#FFDD55"/>
<stop offset="0.5" stop-color="#FF543E"/>
<stop offset="1" stop-color="#C837AB"/>
</linearGradient>
<clipPath id="clip0_1_1065">
<rect width="25" height="25" fill="white"/>
</clipPath>
</defs>
</svg>
