<svg width="14" height="14" viewBox="0 0 14 14" fill="none" xmlns="http://www.w3.org/2000/svg">
<path d="M9.84672 1.68004C9.77899 1.61214 9.69852 1.55826 9.60993 1.5215C9.52135 1.48474 9.42638 1.46582 9.33047 1.46582C9.23456 1.46582 9.13959 1.48474 9.051 1.5215C8.96242 1.55826 8.88195 1.61214 8.81422 1.68004L3.90839 6.58587C3.85431 6.63984 3.81141 6.70394 3.78213 6.77451C3.75286 6.84508 3.73779 6.92072 3.73779 6.99712C3.73779 7.07352 3.75286 7.14917 3.78213 7.21974C3.81141 7.29031 3.85431 7.35441 3.90839 7.40837L8.81422 12.3142C9.10005 12.6 9.56088 12.6 9.84672 12.3142C10.1326 12.0284 10.1326 11.5675 9.84672 11.2817L5.56505 7.00004L9.85255 2.71254C10.1326 2.42671 10.1326 1.96587 9.84672 1.68004Z" fill="#6D58F5"/>
</svg>
