<svg width="39" height="36" viewBox="0 0 39 36" fill="none" xmlns="http://www.w3.org/2000/svg">
<path fill-rule="evenodd" clip-rule="evenodd" d="M11.4373 9.45581C11.4009 9.4564 11.3649 9.46426 11.3315 9.47896C11.298 9.49367 11.2678 9.51491 11.2424 9.54149C11.2171 9.56807 11.1971 9.59946 11.1837 9.63386C11.1703 9.66827 11.1637 9.70502 11.1643 9.74201C11.1643 9.93731 11.0828 10.0255 10.8913 10.0255C10.5173 10.0201 10.5173 10.5934 10.8913 10.588C11.0757 10.588 11.1643 10.6402 11.1643 10.8598C11.159 11.2405 11.7236 11.2405 11.7183 10.8598C11.7183 10.66 11.8104 10.588 11.993 10.588C12.3671 10.5934 12.3671 10.021 11.993 10.0255C11.7449 10.0255 11.7183 9.88151 11.7183 9.74201C11.7187 9.70441 11.7118 9.6671 11.6979 9.63226C11.6839 9.59743 11.6632 9.56579 11.6371 9.5392C11.6109 9.51261 11.5797 9.49161 11.5454 9.47745C11.5111 9.46328 11.4744 9.45623 11.4373 9.45671V9.45581ZM2.96986 15.2608C2.86893 15.2627 2.7729 15.3052 2.70277 15.3789C2.63264 15.4527 2.59416 15.5516 2.59582 15.6541C2.59582 15.9214 2.48325 16.0429 2.22177 16.0429C1.70768 16.0357 1.70768 16.8223 2.22177 16.8151C2.4735 16.8151 2.59582 16.8853 2.59582 17.1877C2.58872 17.7097 3.36344 17.7097 3.35634 17.1877C3.35634 16.9132 3.48222 16.8151 3.73217 16.8151C4.24626 16.8232 4.24626 16.0357 3.73217 16.0429C3.3927 16.0429 3.35634 15.8458 3.35634 15.6541C3.35706 15.6024 3.34754 15.551 3.32837 15.5031C3.30921 15.4552 3.28077 15.4116 3.24474 15.375C3.20871 15.3384 3.16584 15.3096 3.11863 15.2901C3.07142 15.2706 3.02081 15.261 2.96986 15.2617V15.2608Z" fill="#FFBD08"/>
<path fill-rule="evenodd" clip-rule="evenodd" d="M2.63779 25.1416C2.58262 25.1427 2.53018 25.166 2.49183 25.2063C2.45348 25.2466 2.43236 25.3006 2.43307 25.3567C2.43307 25.5034 2.37103 25.57 2.22744 25.57C1.94469 25.5655 1.94469 25.9984 2.22744 25.9939C2.36572 25.9939 2.43307 26.0326 2.43307 26.1982C2.42864 26.4853 2.85407 26.4853 2.84964 26.1982C2.84964 26.0479 2.91969 25.9939 3.05619 25.9939C3.33894 25.9984 3.33894 25.5664 3.05619 25.5709C2.87005 25.5709 2.85056 25.4629 2.85056 25.3567C2.85104 25.3282 2.84582 25.2999 2.8353 25.2734C2.82478 25.247 2.80917 25.223 2.78932 25.2028C2.76947 25.1827 2.74583 25.1668 2.7198 25.1561C2.69378 25.1454 2.66585 25.1402 2.63779 25.1407V25.1416Z" fill="white"/>
<path fill-rule="evenodd" clip-rule="evenodd" d="M13.8254 2.40041C13.7521 2.40183 13.6824 2.43263 13.6314 2.48609C13.5804 2.53954 13.5523 2.6113 13.5533 2.68571C13.5533 2.88101 13.4718 2.96921 13.2812 2.96921C12.9063 2.96381 12.9063 3.53711 13.2812 3.53171C13.4647 3.53171 13.5533 3.58301 13.5533 3.80351C13.5479 4.18331 14.1126 4.18331 14.1072 3.80351C14.1072 3.60371 14.1995 3.53171 14.3821 3.53171C14.7561 3.53711 14.7561 2.96381 14.3821 2.96921C14.1339 2.96921 14.1072 2.82521 14.1072 2.68571C14.1077 2.64811 14.1008 2.61079 14.0868 2.57596C14.0729 2.54113 14.0522 2.50948 14.026 2.48289C13.9999 2.4563 13.9687 2.43531 13.9344 2.42114C13.9001 2.40698 13.8624 2.39993 13.8254 2.40041Z" fill="#FFBB00"/>
<path fill-rule="evenodd" clip-rule="evenodd" d="M26.6225 3.59964C26.5671 3.60082 26.5145 3.62422 26.4761 3.6647C26.4377 3.70518 26.4167 3.75946 26.4177 3.81564C26.4177 3.96234 26.3557 4.02894 26.2121 4.02894C25.9293 4.02444 25.9293 4.45644 26.2121 4.45194C26.3503 4.45194 26.4177 4.49154 26.4177 4.65714C26.4133 4.94424 26.8387 4.94424 26.8343 4.65714C26.8343 4.50684 26.9043 4.45284 27.0408 4.45284C27.3236 4.45734 27.3236 4.02444 27.0408 4.02894C26.8547 4.02894 26.8352 3.92094 26.8352 3.81564C26.8357 3.78714 26.8305 3.75884 26.82 3.73241C26.8095 3.70598 26.7938 3.68198 26.7739 3.66182C26.7541 3.64167 26.7304 3.62577 26.7044 3.61509C26.6784 3.60441 26.6505 3.59915 26.6225 3.59964Z" fill="white"/>
<path fill-rule="evenodd" clip-rule="evenodd" d="M20.3099 7.19924C20.2365 7.20066 20.1666 7.23158 20.1156 7.28523C20.0645 7.33888 20.0366 7.41088 20.0378 7.48544C20.0378 7.67984 19.9553 7.76894 19.7647 7.76894C19.3898 7.76354 19.3898 8.33594 19.7647 8.33144C19.9482 8.33144 20.0378 8.38274 20.0378 8.60234C20.0324 8.98304 20.5962 8.98304 20.5917 8.60234C20.5917 8.40254 20.6839 8.33144 20.8656 8.33144C21.2396 8.33684 21.2396 7.76354 20.8656 7.76894C20.6183 7.76894 20.5908 7.62494 20.5908 7.48544C20.5914 7.44777 20.5846 7.41035 20.5707 7.37541C20.5568 7.34048 20.5361 7.30872 20.5099 7.28204C20.4837 7.25535 20.4525 7.23428 20.4181 7.22005C20.3838 7.20583 20.347 7.19876 20.3099 7.19924Z" fill="#FFBB00"/>
<path fill-rule="evenodd" clip-rule="evenodd" d="M28.0081 10.8001C27.9347 10.8013 27.8647 10.8319 27.8135 10.8854C27.7624 10.9389 27.7341 11.0108 27.7351 11.0854C27.7351 11.2807 27.6536 11.3689 27.463 11.3689C27.0881 11.3635 27.0881 11.9368 27.463 11.9314C27.6465 11.9314 27.7351 11.9827 27.7351 12.2032C27.7298 12.583 28.2944 12.583 28.2891 12.2032C28.2891 12.0034 28.3813 11.9314 28.5639 11.9314C28.9379 11.9368 28.9379 11.3635 28.5639 11.3689C28.3157 11.3689 28.2891 11.2249 28.2891 11.0854C28.2895 11.0478 28.2826 11.0105 28.2687 10.9756C28.2547 10.9408 28.234 10.9091 28.2079 10.8826C28.1817 10.856 28.1505 10.835 28.1162 10.8208C28.0819 10.8066 28.0452 10.7996 28.0081 10.8001Z" fill="#FFBD08"/>
<path fill-rule="evenodd" clip-rule="evenodd" d="M8.58948 20.3453L12.1349 14.9453H26.346L29.8915 20.3453L19.24 32.9453L8.58948 20.3453Z" fill="#FFBB00"/>
<path fill-rule="evenodd" clip-rule="evenodd" d="M12.4371 20.2732L12.251 15.2656L10.2957 20.3407L18.5122 31.8715L12.4371 20.2732Z" fill="#FFBB00"/>
<path fill-rule="evenodd" clip-rule="evenodd" d="M14.4183 18.1984C14.3988 18.0796 12.3424 14.9368 12.3424 14.9368L17.5135 15.016L13.968 15.7522L14.4183 18.1984Z" fill="white"/>
<path fill-rule="evenodd" clip-rule="evenodd" d="M12.3132 15.4361L10.8489 20.3132L19.1036 32.1465L19.1434 32.2571L9.04688 20.3132L12.2733 15.3965L12.3132 15.4361Z" fill="white"/>
<path fill-rule="evenodd" clip-rule="evenodd" d="M18.1586 20.193L19.0272 15.1863L16.72 20.3406L19.1398 32.667L18.1586 20.193Z" fill="#FFBB00"/>
<path fill-rule="evenodd" clip-rule="evenodd" d="M19.3641 32.4432C19.3243 32.2443 15.6813 20.4462 15.6813 20.4462L19.1869 15.6726L16.8167 20.286L19.3641 32.4432Z" fill="white"/>
<path fill-rule="evenodd" clip-rule="evenodd" d="M26.0695 15.4341L26.6332 20.3121L19.2799 32.1453L19.24 32.256L29.3357 20.3112L26.1093 15.3945L26.0695 15.4341Z" fill="#D49B00"/>
<path fill-rule="evenodd" clip-rule="evenodd" d="M19.0006 32.4432C19.0404 32.2443 22.6834 20.4462 22.6834 20.4462L19.1778 15.6726L21.548 20.286L19.0006 32.4432Z" fill="#D49B00"/>
<path d="M8.58953 20.345H11.5021M13.0258 20.345H14.7834M14.6868 20.345H29.7931" stroke="#1A1812" stroke-width="0.7" stroke-linecap="round"/>
<path d="M15.7015 20.3578L12.1561 14.9578" stroke="#1A1812" stroke-width="0.7" stroke-linecap="round" stroke-linejoin="round"/>
<path fill-rule="evenodd" clip-rule="evenodd" d="M24.2966 18.0612C24.3161 17.9415 26.3734 14.7996 26.3734 14.7996L21.2023 14.8788L24.7478 15.615L24.2966 18.0612Z" fill="#D49B00"/>
<path d="M22.7747 20.3458L26.3202 14.9458M15.6882 20.3368L19.2337 14.9368M22.7809 20.3602L19.2355 14.9602" stroke="#1A1812" stroke-width="0.7" stroke-linecap="round" stroke-linejoin="round"/>
<path fill-rule="evenodd" clip-rule="evenodd" d="M15.6804 20.345L19.2259 32.945L15.6804 20.345ZM22.7714 20.345L19.2259 32.945L22.7714 20.345Z" fill="#1A1812"/>
<path d="M15.6804 20.345L19.2259 32.945M22.7714 20.345L19.2259 32.945" stroke="#1A1812" stroke-width="0.7"/>
<path d="M13.125 25.8182L12.7341 25.3547M11.7963 24.1397L8.58948 20.3453L12.1349 14.9453H26.346L29.8915 20.3453L19.24 32.9453L14.2055 26.9891" stroke="#1A1812" stroke-width="0.7" stroke-linecap="round" stroke-linejoin="round"/>
<path fill-rule="evenodd" clip-rule="evenodd" d="M4.68003 6.00004C4.57925 6.00193 4.48331 6.04428 4.41321 6.11782C4.34311 6.19136 4.30456 6.2901 4.30599 6.39244C4.30599 6.66064 4.1925 6.78123 3.93102 6.78123C3.41693 6.77403 3.41693 7.56154 3.93102 7.55344C4.18364 7.55344 4.30599 7.62454 4.30599 7.92604C4.2989 8.44804 5.07357 8.44804 5.0656 7.92604C5.0656 7.65244 5.19236 7.55344 5.44142 7.55344C5.95551 7.56244 5.95551 6.77403 5.44142 6.78123C5.10283 6.78123 5.06646 6.58504 5.06646 6.39244C5.06718 6.3407 5.05766 6.28935 5.03849 6.24141C5.01932 6.19348 4.99088 6.14993 4.95485 6.11335C4.91882 6.07676 4.87596 6.04789 4.82875 6.02842C4.78154 6.00896 4.73098 5.99931 4.68003 6.00004Z" fill="white"/>
</svg>
