<svg width="30" height="30" viewBox="0 0 30 30" fill="none" xmlns="http://www.w3.org/2000/svg">
<g clip-path="url(#clip0_1_1147)">
<path d="M14.4637 4.03667e-05C14.2437 4.03667e-05 14.0762 0.00129037 14.0162 0.00879037C13.8647 0.0239428 13.713 0.0376934 13.5612 0.0500404C9.3025 0.43254 5.31125 2.73129 2.78375 6.26504C1.38596 8.20446 0.477283 10.4528 0.135 12.8188C0.015 13.6425 0 13.8863 0 15.0025C0 16.1188 0.015 16.3638 0.135 17.1875C0.95 22.82 4.96 27.5525 10.3962 29.3063C11.37 29.6188 12.3962 29.8338 13.5637 29.9625C14.0175 30.0125 15.9825 30.0125 16.4375 29.9625C18.4513 29.74 20.1588 29.2413 21.8413 28.3825C22.1 28.25 22.15 28.215 22.115 28.185C22.09 28.1688 20.99 26.6938 19.6712 24.91L17.2725 21.67L14.2675 17.2225C13.2678 15.7345 12.2586 14.2528 11.24 12.7775C11.2287 12.775 11.2175 14.7513 11.2113 17.165C11.2025 21.39 11.1987 21.5588 11.1462 21.6588C11.0953 21.776 11.0039 21.8709 10.8887 21.9263C10.795 21.9725 10.7137 21.9813 10.27 21.9813H9.76125L9.62625 21.8963C9.5428 21.844 9.475 21.7701 9.43 21.6825L9.3675 21.55L9.375 15.6713L9.38375 9.79004L9.47375 9.67504C9.53521 9.60316 9.60883 9.54266 9.69125 9.49629C9.81125 9.43754 9.85875 9.43254 10.3662 9.43254C10.9637 9.43254 11.0637 9.45504 11.2187 9.62504C12.4352 11.4353 13.6414 13.2525 14.8375 15.0763C16.8092 18.0646 18.7821 21.0521 20.7563 24.0388L23.1313 27.6375L23.2512 27.5588C24.3947 26.799 25.4314 25.8897 26.3338 24.855C28.2235 22.692 29.4491 20.0297 29.8638 17.1875C29.9838 16.3625 29.9988 16.12 29.9988 15.0025C29.9988 13.8863 29.9838 13.6425 29.8638 12.8188C29.0488 7.18629 25.04 2.45379 19.6038 0.70004C18.5873 0.376894 17.5407 0.157853 16.48 0.0462904C15.8088 0.0145233 15.1369 -0.000897984 14.465 4.03667e-05H14.4637ZM19.55 9.02129C19.9837 9.02129 20.06 9.02754 20.1575 9.08004C20.2273 9.11529 20.2895 9.16404 20.3403 9.22348C20.3912 9.28291 20.4297 9.35185 20.4538 9.42629C20.4763 9.50129 20.4825 11.1325 20.4762 14.8063L20.4688 20.0788L19.5387 18.6538L18.6062 17.2288V13.3963C18.6062 10.9188 18.6187 9.52504 18.635 9.45879C18.656 9.38061 18.6926 9.30749 18.7426 9.24389C18.7927 9.18029 18.8552 9.12752 18.9263 9.08879C19.0462 9.02629 19.0887 9.02129 19.5513 9.02129H19.55Z" fill="#222222"/>
<path d="M14.4637 4.03667e-05C14.2437 4.03667e-05 14.0762 0.00129037 14.0162 0.00879037C13.8647 0.0239428 13.713 0.0376934 13.5612 0.0500404C9.3025 0.43254 5.31125 2.73129 2.78375 6.26504C1.38596 8.20446 0.477283 10.4528 0.135 12.8188C0.015 13.6425 0 13.8863 0 15.0025C0 16.1188 0.015 16.3638 0.135 17.1875C0.95 22.82 4.96 27.5525 10.3962 29.3063C11.37 29.6188 12.3962 29.8338 13.5637 29.9625C14.0175 30.0125 15.9825 30.0125 16.4375 29.9625C18.4513 29.74 20.1588 29.2413 21.8413 28.3825C22.1 28.25 22.15 28.215 22.115 28.185C22.09 28.1688 20.99 26.6938 19.6712 24.91L17.2725 21.67L14.2675 17.2225C13.2678 15.7345 12.2586 14.2528 11.24 12.7775C11.2287 12.775 11.2175 14.7513 11.2113 17.165C11.2025 21.39 11.1987 21.5588 11.1462 21.6588C11.0953 21.776 11.0039 21.8709 10.8887 21.9263C10.795 21.9725 10.7137 21.9813 10.27 21.9813H9.76125L9.62625 21.8963C9.5428 21.844 9.475 21.7701 9.43 21.6825L9.3675 21.55L9.375 15.6713L9.38375 9.79004L9.47375 9.67504C9.53521 9.60316 9.60883 9.54266 9.69125 9.49629C9.81125 9.43754 9.85875 9.43254 10.3662 9.43254C10.9637 9.43254 11.0637 9.45504 11.2187 9.62504C12.4352 11.4353 13.6414 13.2525 14.8375 15.0763C16.8092 18.0646 18.7821 21.0521 20.7563 24.0388L23.1313 27.6375L23.2512 27.5588C24.3947 26.799 25.4314 25.8897 26.3338 24.855C28.2235 22.692 29.4491 20.0297 29.8638 17.1875C29.9838 16.3625 29.9988 16.12 29.9988 15.0025C29.9988 13.8863 29.9838 13.6425 29.8638 12.8188C29.0488 7.18629 25.04 2.45379 19.6038 0.70004C18.5873 0.376894 17.5407 0.157853 16.48 0.0462904C15.8088 0.0145233 15.1369 -0.000897984 14.465 4.03667e-05H14.4637ZM19.55 9.02129C19.9837 9.02129 20.06 9.02754 20.1575 9.08004C20.2273 9.11529 20.2895 9.16404 20.3403 9.22348C20.3912 9.28291 20.4297 9.35185 20.4538 9.42629C20.4763 9.50129 20.4825 11.1325 20.4762 14.8063L20.4688 20.0788L19.5387 18.6538L18.6062 17.2288V13.3963C18.6062 10.9188 18.6187 9.52504 18.635 9.45879C18.656 9.38061 18.6926 9.30749 18.7426 9.24389C18.7927 9.18029 18.8552 9.12752 18.9263 9.08879C19.0462 9.02629 19.0887 9.02129 19.5513 9.02129H19.55Z" fill="white"/>
</g>
<defs>
<clipPath id="clip0_1_1147">
<rect width="30" height="30" fill="white"/>
</clipPath>
</defs>
</svg>
