<svg width="26" height="26" viewBox="0 0 26 26" fill="none" xmlns="http://www.w3.org/2000/svg">
<rect width="26" height="26" rx="5" fill="white"/>
<g clip-path="url(#clip0_306_2865)">
<path d="M8.84374 18.25L7.7478 17.1562H8.84374V18.25ZM17.1562 18.25L18.2522 17.1562H17.1562V18.25Z" fill="#AF5325"/>
<path d="M17.1564 8.84352H15.4086V7.0957L17.1564 8.84352Z" fill="#B2B2B2"/>
<path d="M15.4063 7.09375H9.19156C9.09932 7.09375 9.01085 7.13039 8.94562 7.19562C8.88039 7.26085 8.84375 7.34932 8.84375 7.44156V18.5978C8.84375 18.6903 8.88032 18.779 8.94549 18.8445C9.01065 18.9101 9.09912 18.9472 9.19156 18.9478H16.8084C16.8552 18.9475 16.9013 18.9379 16.9443 18.9195C16.9872 18.9011 17.026 18.8743 17.0584 18.8407C17.0909 18.807 17.1162 18.7673 17.133 18.7237C17.1498 18.6801 17.1577 18.6336 17.1563 18.5869V8.84375H15.4063V7.09375Z" fill="#F1F1F1"/>
<path d="M15.4063 7.09375H9.19156C9.09932 7.09375 9.01085 7.13039 8.94562 7.19562C8.88039 7.26085 8.84375 7.34932 8.84375 7.44156V18.5978C8.84375 18.6903 8.88032 18.779 8.94549 18.8445C9.01065 18.9101 9.09912 18.9472 9.19156 18.9478H16.8084C16.8552 18.9475 16.9013 18.9379 16.9443 18.9195C16.9872 18.9011 17.026 18.8743 17.0584 18.8407C17.0909 18.807 17.1162 18.7673 17.133 18.7237C17.1498 18.6801 17.1577 18.6336 17.1563 18.5869V8.84375H15.4063V7.09375Z" stroke="#231F20" stroke-width="0.4" stroke-linecap="round" stroke-linejoin="round"/>
<path d="M13.0572 11.3575L11.7646 10.0371L10.472 11.3575H13.0572Z" stroke="#689A42" stroke-width="0.2" stroke-linecap="round" stroke-linejoin="round"/>
<path d="M12.4987 10.7867L13.753 9.50977L15.5275 11.3573H13.0571L12.4987 10.7867V10.7867Z" stroke="#689A42" stroke-width="0.2" stroke-linecap="round" stroke-linejoin="round"/>
<path d="M11.8795 9.37253C12.1005 9.37253 12.2796 9.19338 12.2796 8.9724C12.2796 8.75141 12.1005 8.57227 11.8795 8.57227C11.6585 8.57227 11.4794 8.75141 11.4794 8.9724C11.4794 9.19338 11.6585 9.37253 11.8795 9.37253Z" stroke="#689A42" stroke-width="0.2" stroke-linecap="round" stroke-linejoin="round"/>
<path d="M17.1561 8.84352H15.4083V7.0957L17.1561 8.84352ZM8.84362 18.2498L7.74768 17.156H8.84362V18.2498ZM17.1561 18.2498L18.2521 17.156H17.1561V18.2498Z" stroke="#231F20" stroke-width="0.4" stroke-linecap="round" stroke-linejoin="round"/>
<path d="M7.77429 13.2188H17.8368C17.8948 13.2188 17.9504 13.2418 17.9915 13.2828C18.0325 13.3238 18.0555 13.3795 18.0555 13.4375V17.1562H7.55554V13.4375C7.55554 13.3795 7.57859 13.3238 7.61961 13.2828C7.66064 13.2418 7.71628 13.2188 7.77429 13.2188Z" fill="#689A42"/>
<path d="M11.1018 15.45V16.0745H10.6666V14.2946H11.3629C11.5384 14.2829 11.7116 14.3399 11.846 14.4534C11.9034 14.5096 11.948 14.5777 11.9765 14.6528C12.0051 14.7279 12.017 14.8084 12.0113 14.8886C12.0135 14.9914 11.988 15.0928 11.9374 15.1823C11.8867 15.2706 11.811 15.3418 11.7198 15.3869C11.6091 15.4394 11.4875 15.4647 11.3651 15.4609L11.1018 15.45ZM11.5805 14.8777C11.5805 14.721 11.4935 14.6427 11.3216 14.6427H11.104V15.1062H11.3216C11.4935 15.1062 11.5805 15.03 11.5805 14.8777ZM13.8108 16.0745H13.3757L12.6554 14.9865V16.0745H12.2202V14.2946H12.6554L13.38 15.4065V14.2946H13.8152L13.8108 16.0745ZM15.4907 14.4425C15.6321 14.5485 15.7285 14.7039 15.7605 14.8777H15.3035C15.2737 14.8146 15.226 14.7617 15.1664 14.7254C15.1001 14.6878 15.0251 14.6683 14.9488 14.6688C14.8877 14.6661 14.8267 14.6769 14.7702 14.7007C14.7138 14.7244 14.6633 14.7603 14.6225 14.8059C14.5303 14.9114 14.4834 15.049 14.4919 15.1889C14.4827 15.3304 14.5287 15.47 14.6203 15.5784C14.6692 15.6253 14.7273 15.6616 14.791 15.6848C14.8547 15.708 14.9225 15.7177 14.9902 15.7133C15.0887 15.7165 15.1854 15.6862 15.2645 15.6273C15.3436 15.5684 15.4003 15.4844 15.4254 15.389H14.8814V15.0757H15.7844V15.5109C15.7498 15.6204 15.6935 15.7218 15.6187 15.8089C15.5439 15.896 15.4522 15.9671 15.3492 16.0179C15.2258 16.0745 15.0912 16.1028 14.9554 16.1006C14.7913 16.1041 14.6292 16.0643 14.4854 15.9852C14.3529 15.911 14.2448 15.7998 14.1742 15.6654C14.0991 15.5203 14.0616 15.3587 14.0654 15.1954C14.0619 15.0314 14.0993 14.8691 14.1742 14.7232C14.2447 14.5893 14.3518 14.4784 14.4832 14.4034C14.6227 14.3222 14.7809 14.2787 14.9423 14.2771C15.1385 14.2688 15.3318 14.3271 15.4907 14.4425Z" fill="white"/>
<path d="M7.96875 13.2188H18.0312C18.0893 13.2188 18.1449 13.2418 18.1859 13.2828C18.227 13.3238 18.25 13.3795 18.25 13.4375V17.1562H7.75V13.4375C7.75 13.3795 7.77305 13.3238 7.81407 13.2828C7.85509 13.2418 7.91073 13.2188 7.96875 13.2188V13.2188Z" stroke="#231F20" stroke-width="0.4" stroke-linecap="round" stroke-linejoin="round"/>
</g>
<defs>
<clipPath id="clip0_306_2865">
<rect width="14" height="14" fill="white" transform="translate(6 6)"/>
</clipPath>
</defs>
</svg>
