<svg width="42" height="42" viewBox="0 0 42 42" fill="none" xmlns="http://www.w3.org/2000/svg">
<path d="M21 0.6875C16.9826 0.6875 13.0554 1.87881 9.71499 4.11077C6.37462 6.34274 3.77111 9.51512 2.23371 13.2267C0.696301 16.9384 0.294046 21.0225 1.07781 24.9628C1.86157 28.903 3.79615 32.5224 6.6369 35.3631C9.47766 38.2039 13.097 40.1384 17.0372 40.9222C20.9775 41.706 25.0616 41.3037 28.7733 39.7663C32.4849 38.2289 35.6573 35.6254 37.8892 32.285C40.1212 28.9446 41.3125 25.0174 41.3125 21C41.3022 15.616 39.1588 10.4554 35.3517 6.6483C31.5446 2.8412 26.384 0.697824 21 0.6875ZM21 38.1875C17.6006 38.1875 14.2776 37.1795 11.4511 35.2909C8.62468 33.4023 6.42171 30.718 5.12083 27.5774C3.81995 24.4368 3.47958 20.9809 4.14276 17.6469C4.80595 14.3128 6.4429 11.2503 8.84661 8.8466C11.2503 6.44289 14.3128 4.80594 17.6469 4.14275C20.9809 3.47957 24.4368 3.81994 27.5774 5.12082C30.718 6.4217 33.4023 8.62467 35.2909 11.4511C37.1795 14.2776 38.1875 17.6006 38.1875 21C38.1823 25.5568 36.3699 29.9255 33.1477 33.1477C29.9255 36.3699 25.5568 38.1823 21 38.1875ZM11.625 17.0938C11.625 16.6302 11.7625 16.1771 12.02 15.7916C12.2775 15.4062 12.6436 15.1058 13.0718 14.9284C13.5001 14.751 13.9714 14.7046 14.426 14.795C14.8806 14.8855 15.2983 15.1087 15.626 15.4365C15.9538 15.7642 16.177 16.1819 16.2675 16.6365C16.3579 17.0912 16.3115 17.5624 16.1341 17.9907C15.9567 18.4189 15.6563 18.785 15.2709 19.0425C14.8854 19.3 14.4323 19.4375 13.9688 19.4375C13.3472 19.4375 12.751 19.1906 12.3115 18.751C11.8719 18.3115 11.625 17.7154 11.625 17.0938ZM25.6875 17.0938C25.6875 16.6302 25.825 16.1771 26.0825 15.7916C26.34 15.4062 26.7061 15.1058 27.1343 14.9284C27.5626 14.751 28.0339 14.7046 28.4885 14.795C28.9431 14.8855 29.3608 15.1087 29.6885 15.4365C30.0163 15.7642 30.2395 16.1819 30.33 16.6365C30.4204 17.0912 30.374 17.5624 30.1966 17.9907C30.0192 18.4189 29.7188 18.785 29.3334 19.0425C28.948 19.3 28.4948 19.4375 28.0313 19.4375C27.4097 19.4375 26.8135 19.1906 26.374 18.751C25.9344 18.3115 25.6875 17.7154 25.6875 17.0938ZM30.4727 29.5938C30.6786 29.9515 30.7346 30.3761 30.6285 30.775C30.5224 31.1739 30.2627 31.5146 29.9063 31.7227C29.6708 31.8653 29.4003 31.9397 29.125 31.9375C28.8505 31.9427 28.5797 31.8727 28.3421 31.735C28.1046 31.5972 27.9093 31.3971 27.7774 31.1563C27.0892 29.9682 26.1009 28.9818 24.9114 28.2962C23.7219 27.6105 22.373 27.2496 21 27.2496C19.627 27.2496 18.2782 27.6105 17.0887 28.2962C15.8992 28.9818 14.9108 29.9682 14.2227 31.1563C14.1295 31.3505 13.9971 31.5234 13.8339 31.6641C13.6707 31.8048 13.4801 31.9102 13.2742 31.9737C13.0683 32.0371 12.8515 32.0574 12.6374 32.033C12.4234 32.0087 12.2166 31.9404 12.0302 31.8323C11.8438 31.7242 11.6817 31.5788 11.5542 31.4051C11.4267 31.2314 11.3365 31.0332 11.2893 30.823C11.2421 30.6127 11.2389 30.395 11.2798 30.1835C11.3208 29.9719 11.4051 29.7712 11.5274 29.5938C12.4873 27.9308 13.868 26.5499 15.5308 25.5897C17.1936 24.6296 19.0799 24.1241 21 24.1241C22.9201 24.1241 24.8064 24.6296 26.4692 25.5897C28.132 26.5499 29.5128 27.9308 30.4727 29.5938Z" fill="#6D58F5"/>
</svg>
