<svg width="36" height="36" viewBox="0 0 36 36" fill="none" xmlns="http://www.w3.org/2000/svg">
<circle opacity="0.1" cx="18" cy="18" r="18" fill="#6563FF"/>
<path d="M13.9191 15.0835H13.9022C13.7231 15.0947 13.5436 15.0688 13.3749 15.0074C13.2063 14.946 13.0521 14.8505 12.9221 14.7267C12.7921 14.603 12.689 14.4538 12.6194 14.2884C12.5497 14.123 12.5149 13.945 12.5172 13.7656C12.5195 13.5861 12.5588 13.4091 12.6327 13.2455C12.7066 13.082 12.8134 12.9355 12.9466 12.8151C13.0797 12.6948 13.2362 12.6032 13.4064 12.5461C13.5765 12.4891 13.7566 12.4678 13.9354 12.4836C14.1145 12.471 14.2943 12.4957 14.4635 12.5559C14.6326 12.6161 14.7875 12.7106 14.9185 12.8335C15.0494 12.9563 15.1535 13.1049 15.2243 13.2699C15.2952 13.4349 15.3311 13.6128 15.33 13.7923C15.3289 13.9719 15.2907 14.1493 15.2178 14.3134C15.1449 14.4775 15.0389 14.6247 14.9064 14.7459C14.774 14.8672 14.6179 14.9597 14.448 15.0178C14.2781 15.0759 14.098 15.0982 13.9191 15.0835V15.0835ZM12.7606 16.8335H15.0939V23.8335H12.7606V16.8335ZM21.2189 16.8335C20.8257 16.8345 20.4379 16.9244 20.0844 17.0965C19.7308 17.2685 19.4207 17.5182 19.1772 17.8269V16.8335H16.8439V23.8335H19.1772V20.6251C19.1772 20.3157 19.3002 20.019 19.519 19.8002C19.7378 19.5814 20.0345 19.4585 20.3439 19.4585C20.6533 19.4585 20.9501 19.5814 21.1689 19.8002C21.3877 20.019 21.5106 20.3157 21.5106 20.6251V23.8335H23.8439V19.4585C23.8439 18.7623 23.5674 18.0946 23.0751 17.6023C22.5828 17.11 21.9151 16.8335 21.2189 16.8335Z" fill="#6563FF"/>
</svg>
