<svg width="26" height="26" viewBox="0 0 26 26" fill="none" xmlns="http://www.w3.org/2000/svg">
<rect width="26" height="26" rx="5" fill="white"/>
<g clip-path="url(#clip0_306_2862)">
<path d="M8.84374 18.25L7.7478 17.1562H8.84374V18.25ZM17.1562 18.25L18.2522 17.1562H17.1562V18.25Z" fill="#AF5325"/>
<path d="M17.1563 8.84352H15.4085V7.0957L17.1563 8.84352Z" fill="#B2B2B2"/>
<path d="M15.4063 7.09375H9.19156C9.09932 7.09375 9.01085 7.13039 8.94562 7.19562C8.88039 7.26085 8.84375 7.34932 8.84375 7.44156V18.5978C8.84375 18.6903 8.88032 18.779 8.94549 18.8445C9.01065 18.9101 9.09912 18.9472 9.19156 18.9478H16.8084C16.8552 18.9475 16.9013 18.9379 16.9443 18.9195C16.9872 18.9011 17.026 18.8743 17.0584 18.8407C17.0909 18.807 17.1162 18.7673 17.133 18.7237C17.1498 18.6801 17.1577 18.6336 17.1563 18.5869V8.84375H15.4063V7.09375Z" fill="#F1F1F1"/>
<path d="M15.4063 7.09375H9.19156C9.09932 7.09375 9.01085 7.13039 8.94562 7.19562C8.88039 7.26085 8.84375 7.34932 8.84375 7.44156V18.5978C8.84375 18.6903 8.88032 18.779 8.94549 18.8445C9.01065 18.9101 9.09912 18.9472 9.19156 18.9478H16.8084C16.8552 18.9475 16.9013 18.9379 16.9443 18.9195C16.9872 18.9011 17.026 18.8743 17.0584 18.8407C17.0909 18.807 17.1162 18.7673 17.133 18.7237C17.1498 18.6801 17.1577 18.6336 17.1563 18.5869V8.84375H15.4063V7.09375Z" stroke="#231F20" stroke-width="0.4" stroke-linecap="round" stroke-linejoin="round"/>
<path d="M17.1562 8.84352H15.4084V7.0957L17.1562 8.84352ZM8.84368 18.2498L7.74774 17.156H8.84368V18.2498ZM17.1562 18.2498L18.2521 17.156H17.1562V18.2498Z" stroke="#231F20" stroke-width="0.4" stroke-linecap="round" stroke-linejoin="round"/>
<path d="M7.96875 13.2188H18.0312C18.0893 13.2188 18.1449 13.2418 18.1859 13.2828C18.227 13.3238 18.25 13.3795 18.25 13.4375V17.1562H7.75V13.4375C7.75 13.3795 7.77305 13.3238 7.81407 13.2828C7.85509 13.2418 7.91073 13.2188 7.96875 13.2188Z" fill="#E17E3D"/>
<path d="M7.96875 13.2188H18.0312C18.0893 13.2188 18.1449 13.2418 18.1859 13.2828C18.227 13.3238 18.25 13.3795 18.25 13.4375V17.1562H7.75V13.4375C7.75 13.3795 7.77305 13.3238 7.81407 13.2828C7.85509 13.2418 7.91073 13.2188 7.96875 13.2188V13.2188Z" stroke="#231F20" stroke-width="0.4" stroke-linecap="round" stroke-linejoin="round"/>
<path d="M11.7159 15.8192C11.6627 15.9022 11.5868 15.9683 11.4972 16.0095C11.3909 16.0584 11.275 16.0823 11.1581 16.0795C10.9809 16.0873 10.8061 16.0358 10.6615 15.9329C10.5965 15.8857 10.5431 15.8244 10.5052 15.7535C10.4673 15.6827 10.446 15.6042 10.4428 15.5239H10.9022C10.9055 15.5842 10.9312 15.6412 10.9744 15.6836C10.9956 15.7029 11.0204 15.7179 11.0474 15.7277C11.0745 15.7374 11.1031 15.7418 11.1319 15.7404C11.1557 15.742 11.1796 15.7388 11.2022 15.7309C11.2247 15.723 11.2455 15.7106 11.2631 15.6945C11.2796 15.6792 11.2926 15.6606 11.3013 15.6398C11.31 15.6191 11.3141 15.5967 11.3134 15.5742C11.314 15.5531 11.3102 15.5321 11.3023 15.5125C11.2944 15.4929 11.2826 15.4752 11.2675 15.4604C11.2364 15.4286 11.1992 15.4033 11.1581 15.3861C11.1144 15.3664 11.0531 15.3423 10.9765 15.3161C10.8814 15.2846 10.7886 15.2466 10.6987 15.2023C10.6245 15.1652 10.5612 15.1094 10.515 15.0404C10.4593 14.9589 10.4316 14.8613 10.4362 14.7626C10.4342 14.6646 10.4625 14.5684 10.5172 14.487C10.5718 14.4079 10.6476 14.3457 10.7359 14.3076C10.8391 14.2648 10.9501 14.2439 11.0619 14.2464C11.2319 14.2363 11.4 14.2867 11.5365 14.3886C11.5952 14.4358 11.6433 14.4949 11.6776 14.562C11.7119 14.6291 11.7317 14.7027 11.7356 14.7779H11.2872C11.282 14.7249 11.2598 14.675 11.2237 14.6358C11.1846 14.6012 11.1337 14.5832 11.0815 14.5854C11.0373 14.5838 10.994 14.5977 10.959 14.6248C10.9432 14.6404 10.9309 14.6592 10.923 14.68C10.9151 14.7008 10.9117 14.723 10.9131 14.7451C10.9123 14.7849 10.9272 14.8235 10.9547 14.8523C10.9852 14.8822 11.0208 14.9067 11.0597 14.9245L11.2412 14.9945C11.3383 15.0253 11.4327 15.0641 11.5234 15.1104C11.5975 15.1496 11.6612 15.2059 11.7094 15.2745C11.7649 15.3587 11.7924 15.4582 11.7881 15.5589C11.7888 15.6507 11.7638 15.7409 11.7159 15.8192ZM12.3634 14.2726L12.8009 15.6201L13.2384 14.2726H13.7L13.0787 16.062H12.5187L11.9062 14.2726H12.3634ZM15.2597 14.4214C15.402 14.5274 15.4983 14.684 15.5287 14.8589H15.0715C15.0414 14.7949 14.9926 14.7415 14.9315 14.7058C14.843 14.6575 14.7411 14.6394 14.6413 14.6539C14.5415 14.6685 14.4492 14.7151 14.3781 14.7867C14.2913 14.8913 14.2475 15.0251 14.2556 15.1608C14.2454 15.3032 14.2918 15.4439 14.3847 15.5523C14.4333 15.5996 14.4914 15.6361 14.5551 15.6595C14.6188 15.6829 14.6867 15.6925 14.7544 15.6879C14.8513 15.6896 14.9462 15.6605 15.0256 15.6048C15.1045 15.5465 15.1615 15.4633 15.1875 15.3686H14.645V15.0579H15.5528V15.4954C15.5176 15.6017 15.4627 15.7004 15.3909 15.7864C15.3122 15.8782 15.2154 15.9526 15.1065 16.0051C14.9823 16.0618 14.8471 16.0902 14.7106 16.0883C14.545 16.0918 14.3813 16.0518 14.2359 15.9723C14.1034 15.8975 13.9955 15.7858 13.9253 15.6508C13.8491 15.5051 13.8107 15.3426 13.8137 15.1783C13.8109 15.0132 13.8492 14.8501 13.9253 14.7036C13.9955 14.5686 14.1034 14.4568 14.2359 14.382C14.379 14.3028 14.5405 14.2628 14.704 14.2661C14.9014 14.2546 15.0969 14.3092 15.2597 14.4214Z" fill="white"/>
<path d="M12.4598 9.48926H13.5426V10.5721H12.4598V9.48926Z" stroke="#E17E3D" stroke-width="0.2" stroke-linecap="round" stroke-linejoin="round"/>
<path d="M11.0137 10.6353C11.3121 10.6353 11.554 10.3934 11.554 10.095C11.554 9.79659 11.3121 9.55469 11.0137 9.55469C10.7153 9.55469 10.4734 9.79659 10.4734 10.095C10.4734 10.3934 10.7153 10.6353 11.0137 10.6353Z" stroke="#E17E3D" stroke-width="0.2" stroke-linecap="round" stroke-linejoin="round"/>
<path d="M11.554 10.0957H12.4596" stroke="#E17E3D" stroke-width="0.2" stroke-linecap="round" stroke-linejoin="round"/>
<path d="M14.9864 10.6353C15.2848 10.6353 15.5267 10.3934 15.5267 10.095C15.5267 9.79659 15.2848 9.55469 14.9864 9.55469C14.688 9.55469 14.446 9.79659 14.446 10.095C14.446 10.3934 14.688 10.6353 14.9864 10.6353Z" stroke="#E17E3D" stroke-width="0.2" stroke-linecap="round" stroke-linejoin="round"/>
<path d="M13.5403 10.0957H14.4459M11.4906 12.2548C11.4906 11.8545 11.6496 11.4705 11.9327 11.1875C12.2157 10.9044 12.5997 10.7454 13 10.7454C13.4003 10.7454 13.7842 10.9044 14.0673 11.1875C14.3503 11.4705 14.5094 11.8545 14.5094 12.2548" stroke="#E17E3D" stroke-width="0.2" stroke-linecap="round" stroke-linejoin="round"/>
</g>
<defs>
<clipPath id="clip0_306_2862">
<rect width="14" height="14" fill="white" transform="translate(6 6)"/>
</clipPath>
</defs>
</svg>
