<svg width="25" height="25" viewBox="0 0 25 25" fill="none" xmlns="http://www.w3.org/2000/svg">
<g clip-path="url(#clip0_1_1068)">
<path d="M24.7559 12.543C24.7559 19.2845 19.2903 24.75 12.5488 24.75C5.80728 24.75 0.341797 19.2845 0.341797 12.543C0.341797 5.80142 5.80728 0.335938 12.5488 0.335938C19.2903 0.335938 24.7559 5.80142 24.7559 12.543Z" fill="#1DA1F2"/>
<path d="M20.0256 9.10898C19.4932 9.34482 18.9284 9.49958 18.3501 9.56811C18.9525 9.20659 19.4147 8.63511 19.6336 7.95405C19.0606 8.29346 18.4339 8.5328 17.7806 8.66182C17.2483 8.09443 16.4896 7.74048 15.6503 7.74048C14.0385 7.74048 12.7327 9.04751 12.7327 10.658C12.7327 10.8865 12.7581 11.1098 12.8081 11.3233C10.3835 11.2012 8.233 10.0397 6.79432 8.27383C6.54252 8.70532 6.39906 9.20659 6.39906 9.74102C6.39906 10.7537 6.91439 11.6473 7.69637 12.17C7.21825 12.155 6.76883 12.0234 6.37465 11.8045V11.8417C6.37465 13.2548 7.38085 14.4342 8.71537 14.702C8.28591 14.8196 7.83516 14.8371 7.39789 14.753C7.76976 15.9122 8.84716 16.7558 10.1243 16.7792C9.12552 17.5622 7.86752 18.0276 6.50008 18.0276C6.2642 18.0276 6.03153 18.0148 5.80414 17.9872C7.09506 18.8149 8.62826 19.2983 10.2762 19.2983C15.6429 19.2983 18.5786 14.8518 18.5786 10.9961C18.5786 10.8696 18.5754 10.7442 18.5701 10.6188C19.1406 10.2076 19.6346 9.69346 20.0256 9.10898Z" fill="#F2F2F2"/>
</g>
<defs>
<clipPath id="clip0_1_1068">
<rect width="25" height="25" fill="white"/>
</clipPath>
</defs>
</svg>
