<svg width="16" height="15" viewBox="0 0 16 15" fill="none" xmlns="http://www.w3.org/2000/svg">
<g clip-path="url(#clip0_1_25)">
<path d="M8.22909 0.000142253C8.11909 0.000142253 8.03535 0.00076724 8.00535 0.00451716C7.92958 0.0120932 7.85375 0.0189683 7.77785 0.0251417C5.64852 0.216388 3.65294 1.36574 2.38922 3.13257C1.69034 4.10226 1.23601 5.2264 1.06487 6.40938C1.00488 6.82124 0.997375 6.94312 0.997375 7.50123C0.997375 8.05934 1.00488 8.18184 1.06487 8.5937C1.47237 11.4099 3.47732 13.7761 6.19539 14.6529C6.68225 14.8092 7.19536 14.9167 7.7791 14.9811C8.00597 15.0061 8.98845 15.0061 9.21595 14.9811C10.2228 14.8698 11.0765 14.6204 11.9178 14.1911C12.0471 14.1248 12.0721 14.1073 12.0546 14.0923C12.0421 14.0842 11.4921 13.3467 10.8328 12.4549L9.63344 10.8349L8.13097 8.6112C7.63111 7.86719 7.12652 7.12636 6.61725 6.38875C6.61163 6.3875 6.606 7.37561 6.60288 8.58245C6.5985 10.6949 6.59663 10.7793 6.57038 10.8293C6.5449 10.8879 6.4992 10.9353 6.44163 10.963C6.39476 10.9862 6.35413 10.9905 6.13226 10.9905H5.87789L5.8104 10.948C5.76867 10.9219 5.73477 10.885 5.71227 10.8412L5.68102 10.7749L5.68477 7.8356L5.68915 4.89504L5.73415 4.83754C5.76487 4.8016 5.80168 4.77135 5.8429 4.74816C5.90289 4.71879 5.92664 4.71629 6.18039 4.71629C6.47913 4.71629 6.52913 4.72754 6.60663 4.81254C7.21483 5.71767 7.81795 6.62621 8.41596 7.5381C9.4018 9.03221 10.3882 10.5259 11.3753 12.0193L12.5627 13.8186L12.6227 13.7792C13.1945 13.3993 13.7128 12.9447 14.164 12.4274C15.1088 11.3459 15.7216 10.0148 15.9289 8.5937C15.9889 8.18121 15.9964 8.05997 15.9964 7.50123C15.9964 6.94312 15.9889 6.82124 15.9289 6.40938C15.5214 3.59319 13.5171 1.22699 10.799 0.350135C10.2908 0.188565 9.76754 0.0790468 9.2372 0.0232667C8.90161 0.00738354 8.56568 -0.000326912 8.22972 0.000142253H8.22909ZM10.7722 4.51067C10.989 4.51067 11.0272 4.51379 11.0759 4.54004C11.1108 4.55767 11.1419 4.58204 11.1673 4.61176C11.1927 4.64148 11.212 4.67594 11.224 4.71316C11.2353 4.75066 11.2384 5.56627 11.2353 7.40311L11.2315 10.0393L10.7665 9.32681L10.3003 8.61433V6.69812C10.3003 5.4594 10.3065 4.76254 10.3147 4.72941C10.3251 4.69032 10.3435 4.65377 10.3685 4.62197C10.3935 4.59017 10.4248 4.56378 10.4603 4.54442C10.5203 4.51317 10.5415 4.51067 10.7728 4.51067H10.7722Z" fill="#222222"/>
</g>
<defs>
<clipPath id="clip0_1_25">
<rect width="14.9997" height="14.9997" fill="white" transform="translate(0.997375 0.00012207)"/>
</clipPath>
</defs>
</svg>
