<svg width="22" height="22" viewBox="0 0 22 22" fill="none" xmlns="http://www.w3.org/2000/svg">
<path d="M2.75 17.875V15.125H20.625V17.875C20.625 19.3938 19.3938 20.625 17.875 20.625H5.5C3.98121 20.625 2.75 19.3938 2.75 17.875Z" fill="#030B26" fill-opacity="0.1"/>
<path d="M1.375 16.5V13.75H19.25V16.5C19.25 18.0188 18.0188 19.25 16.5 19.25H4.125C2.60622 19.25 1.375 18.0188 1.375 16.5Z" fill="#4169E1"/>
<path fill-rule="evenodd" clip-rule="evenodd" d="M5.84375 5.5L1.375 1.375V12.375H19.25V1.375L14.7812 5.5L10.3125 1.375L5.84375 5.5ZM11.6875 8.25C11.6875 9.00938 11.0719 9.625 10.3125 9.625C9.55312 9.625 8.9375 9.00938 8.9375 8.25C8.9375 7.49062 9.55312 6.875 10.3125 6.875C11.0719 6.875 11.6875 7.49062 11.6875 8.25ZM4.8125 8.25C4.8125 8.62971 4.50471 8.9375 4.125 8.9375C3.74529 8.9375 3.4375 8.62971 3.4375 8.25C3.4375 7.87029 3.74529 7.5625 4.125 7.5625C4.50471 7.5625 4.8125 7.87029 4.8125 8.25ZM16.5 8.9375C16.8797 8.9375 17.1875 8.62971 17.1875 8.25C17.1875 7.87029 16.8797 7.5625 16.5 7.5625C16.1203 7.5625 15.8125 7.87029 15.8125 8.25C15.8125 8.62971 16.1203 8.9375 16.5 8.9375Z" fill="#FFA621"/>
<path d="M5.84375 6.875L2.75 4.125V13.75C2.75 15.2688 3.98121 16.5 5.5 16.5H15.125C16.6438 16.5 17.875 15.2688 17.875 13.75V4.125L14.7812 6.875L10.3125 2.75L5.84375 6.875Z" fill="url(#paint0_linear_1_878)"/>
<defs>
<linearGradient id="paint0_linear_1_878" x1="10.3125" y1="2.75" x2="10.3125" y2="16.5" gradientUnits="userSpaceOnUse">
<stop stop-color="white" stop-opacity="0.6"/>
<stop offset="1" stop-color="white" stop-opacity="0.1"/>
</linearGradient>
</defs>
</svg>
