<svg width="25" height="25" viewBox="0 0 25 25" fill="none" xmlns="http://www.w3.org/2000/svg">
<g clip-path="url(#clip0_1_1061)">
<path d="M25 12.5C25 5.59644 19.4036 0 12.5 0C5.59644 0 0 5.59644 0 12.5C0 19.4036 5.59644 25 12.5 25C19.4036 25 25 19.4036 25 12.5Z" fill="#6563FF"/>
<path d="M13.4967 19.5555V12.8645H15.7427L16.0795 10.2568H13.4967V8.59193C13.4967 7.83701 13.7065 7.3225 14.7891 7.3225H16.1699V4.9909C15.5016 4.92019 14.8298 4.88593 14.1578 4.8883C12.1668 4.8883 10.8039 6.10346 10.8039 8.3352V10.2568H8.55219V12.8645H10.8039V19.5555H13.4967Z" fill="#FDFDFD"/>
</g>
<defs>
<clipPath id="clip0_1_1061">
<rect width="25" height="25" fill="white"/>
</clipPath>
</defs>
</svg>
