<svg width="12" height="12" viewBox="0 0 12 12" fill="none" xmlns="http://www.w3.org/2000/svg">
<path d="M5.25033 10.867L0.850326 6.46705C0.783659 6.40038 0.736325 6.32816 0.708325 6.25038C0.68077 6.1726 0.666992 6.08927 0.666992 6.00038C0.666992 5.91149 0.68077 5.82816 0.708325 5.75038C0.736325 5.6726 0.783659 5.60038 0.850326 5.53371L5.25033 1.13371C5.37255 1.01149 5.52521 0.947492 5.70833 0.941714C5.89188 0.936381 6.05033 1.00038 6.18366 1.13371C6.31699 1.25594 6.38655 1.4086 6.39233 1.59171C6.39766 1.77527 6.33366 1.93371 6.20033 2.06705L2.93366 5.33371H10.3837C10.5725 5.33371 10.731 5.39749 10.859 5.52505C10.9865 5.65305 11.0503 5.81149 11.0503 6.00038C11.0503 6.18927 10.9865 6.34749 10.859 6.47505C10.731 6.60305 10.5725 6.66705 10.3837 6.66705H2.93366L6.20033 9.93371C6.32255 10.0559 6.38655 10.2115 6.39233 10.4004C6.39766 10.5893 6.33366 10.7448 6.20033 10.867C6.0781 11.0004 5.92255 11.067 5.73366 11.067C5.54477 11.067 5.38366 11.0004 5.25033 10.867V10.867Z" fill="#6C57F3"/>
</svg>
