<svg width="52" height="52" viewBox="0 0 52 52" fill="none" xmlns="http://www.w3.org/2000/svg">
<circle opacity="0.1" cx="26" cy="26" r="26" fill="#604CE2"/>
<circle opacity="0.1" cx="25.9986" cy="25.9995" r="18.2388" fill="#604CE2"/>
<path d="M27.8437 19.3184C26.5608 19.3199 25.331 19.8302 24.4239 20.7372C23.5168 21.6443 23.0066 22.8742 23.005 24.157C23.0034 24.6192 23.0694 25.0791 23.2009 25.5222L19.9809 28.7364C19.853 28.8674 19.7807 29.0429 19.7793 29.226V31.5301C19.7793 31.7134 19.8521 31.8893 19.9818 32.0189C20.1114 32.1485 20.2872 32.2213 20.4705 32.2213H22.7746C22.958 32.2213 23.1338 32.1485 23.2634 32.0189C23.393 31.8893 23.4659 31.7134 23.4659 31.5301V30.8389H24.1571C24.3404 30.8389 24.5162 30.7661 24.6459 30.6364C24.7755 30.5068 24.8483 30.331 24.8483 30.1477V29.4564H25.5396C25.7227 29.455 25.8982 29.3828 26.0292 29.2548L26.4785 28.7998C26.9216 28.9312 27.3815 28.9972 27.8437 28.9956C29.1269 28.9956 30.3577 28.4858 31.2651 27.5784C32.1725 26.671 32.6823 25.4403 32.6823 24.157C32.6823 22.8737 32.1725 21.643 31.2651 20.7356C30.3577 19.8281 29.1269 19.3184 27.8437 19.3184V19.3184ZM27.8437 27.6131C27.4078 27.6142 26.9757 27.5321 26.5706 27.3712C26.444 27.3166 26.3039 27.3012 26.1684 27.3268C26.0329 27.3525 25.9082 27.4181 25.8103 27.5152L25.2515 28.074H24.1571C23.9738 28.074 23.798 28.1468 23.6683 28.2764C23.5387 28.406 23.4659 28.5819 23.4659 28.7652V29.4564H22.7746C22.5913 29.4564 22.4155 29.5292 22.2859 29.6589C22.1562 29.7885 22.0834 29.9643 22.0834 30.1477V30.8389H21.1618V29.514L24.4854 26.1904C24.5825 26.0924 24.6481 25.9677 24.6738 25.8322C24.6995 25.6967 24.684 25.5566 24.6294 25.43C24.3572 24.7428 24.3124 23.9865 24.5017 23.272C24.6909 22.5575 25.1043 21.9225 25.681 21.4602C26.2577 20.9979 26.9675 20.7327 27.706 20.7035C28.4446 20.6743 29.1731 20.8827 29.7845 21.2979C30.3959 21.7132 30.8581 22.3136 31.1032 23.0109C31.3483 23.7082 31.3634 24.4658 31.1463 25.1723C30.9291 25.8788 30.4912 26.4971 29.8968 26.9364C29.3024 27.3757 28.5828 27.6129 27.8437 27.6131V27.6131ZM29.9174 23.0049C29.9174 23.1872 29.8633 23.3654 29.762 23.517C29.6608 23.6685 29.5168 23.7867 29.3484 23.8564C29.18 23.9262 28.9947 23.9444 28.8159 23.9089C28.6371 23.8733 28.4729 23.7855 28.344 23.6566C28.2151 23.5277 28.1273 23.3635 28.0918 23.1847C28.0562 23.0059 28.0745 22.8206 28.1442 22.6522C28.214 22.4838 28.3321 22.3399 28.4837 22.2386C28.6352 22.1373 28.8134 22.0833 28.9957 22.0833C29.2401 22.0833 29.4746 22.1804 29.6474 22.3532C29.8203 22.5261 29.9174 22.7605 29.9174 23.0049Z" fill="#604CE2"/>
</svg>
