<svg width="15" height="15" viewBox="0 0 15 15" fill="none" xmlns="http://www.w3.org/2000/svg">
<circle cx="7.49984" cy="7.49984" r="7.49984" fill="#B9E09C"/>
<g clip-path="url(#clip0_1_4060)">
<path d="M4.82807 10.875L4.12354 10.1719H4.82807V10.875ZM10.1718 10.875L10.8763 10.1719H10.1718V10.875Z" fill="#AF5325"/>
<path d="M10.1719 4.8277H9.04834V3.7041L10.1719 4.8277Z" fill="#B2B2B2"/>
<path d="M9.04688 3.70312H5.05172C4.99242 3.70312 4.93555 3.72668 4.89361 3.76861C4.85168 3.81055 4.82813 3.86742 4.82813 3.92672V11.0986C4.82812 11.158 4.85164 11.215 4.89353 11.2572C4.93542 11.2994 4.99229 11.3232 5.05172 11.3236H9.94828C9.97831 11.3234 10.008 11.3172 10.0356 11.3054C10.0632 11.2936 10.0882 11.2763 10.109 11.2547C10.1298 11.2331 10.1461 11.2075 10.1569 11.1795C10.1677 11.1515 10.1728 11.1216 10.1719 11.0916V4.82812H9.04688V3.70312Z" fill="#F1F1F1"/>
<path d="M9.04688 3.70312H5.05172C4.99242 3.70312 4.93555 3.72668 4.89361 3.76861C4.85168 3.81055 4.82813 3.86742 4.82813 3.92672V11.0986C4.82812 11.158 4.85164 11.215 4.89353 11.2572C4.93542 11.2994 4.99229 11.3232 5.05172 11.3236H9.94828C9.97831 11.3234 10.008 11.3172 10.0356 11.3054C10.0632 11.2936 10.0882 11.2763 10.109 11.2547C10.1298 11.2331 10.1461 11.2075 10.1569 11.1795C10.1677 11.1515 10.1728 11.1216 10.1719 11.0916V4.82812H9.04688V3.70312Z" stroke="#231F20" stroke-width="0.4" stroke-linecap="round" stroke-linejoin="round"/>
<path d="M7.53691 6.44357L6.70595 5.59473L5.875 6.44357H7.53691Z" stroke="#689A42" stroke-width="0.2" stroke-linecap="round" stroke-linejoin="round"/>
<path d="M7.17773 6.07675L7.98408 5.25586L9.12483 6.44357H7.53673L7.17773 6.07675V6.07675Z" stroke="#689A42" stroke-width="0.2" stroke-linecap="round" stroke-linejoin="round"/>
<path d="M6.77969 5.16777C6.92175 5.16777 7.03691 5.05261 7.03691 4.91055C7.03691 4.76848 6.92175 4.65332 6.77969 4.65332C6.63763 4.65332 6.52246 4.76848 6.52246 4.91055C6.52246 5.05261 6.63763 5.16777 6.77969 5.16777Z" stroke="#689A42" stroke-width="0.2" stroke-linecap="round" stroke-linejoin="round"/>
<path d="M10.1718 4.8277H9.04822V3.7041L10.1718 4.8277ZM4.82807 10.8746L4.12354 10.1714H4.82807V10.8746ZM10.1718 10.8746L10.8763 10.1714H10.1718V10.8746Z" stroke="#231F20" stroke-width="0.4" stroke-linecap="round" stroke-linejoin="round"/>
<path d="M4.14062 7.64062H10.6094C10.6467 7.64062 10.6824 7.65544 10.7088 7.68181C10.7352 7.70819 10.75 7.74395 10.75 7.78125V10.1719H4V7.78125C4 7.74395 4.01482 7.70819 4.04119 7.68181C4.06756 7.65544 4.10333 7.64062 4.14062 7.64062Z" fill="#689A42"/>
<path d="M6.27976 9.07477V9.47623H6V8.332H6.44762C6.56045 8.32453 6.67178 8.36114 6.75815 8.43412C6.79508 8.47027 6.82371 8.51401 6.84207 8.56231C6.86043 8.61061 6.86807 8.66233 6.86446 8.71388C6.86586 8.77996 6.84943 8.84519 6.8169 8.90272C6.78433 8.95944 6.73565 9.0052 6.67702 9.03421C6.60588 9.06796 6.52772 9.08427 6.44902 9.08177L6.27976 9.07477ZM6.5875 8.70689C6.5875 8.60617 6.53155 8.55581 6.42104 8.55581H6.28116V8.85376H6.42104C6.53155 8.85376 6.5875 8.8048 6.5875 8.70689ZM8.02128 9.47623H7.74152L7.27851 8.77683V9.47623H6.99875V8.332H7.27851L7.74432 9.0468V8.332H8.02408L8.02128 9.47623ZM9.10116 8.42712C9.1921 8.49525 9.25403 8.59514 9.27461 8.70689H8.98086C8.96169 8.66633 8.93105 8.63229 8.89274 8.60897C8.8501 8.5848 8.80186 8.57226 8.75286 8.5726C8.71354 8.57084 8.67432 8.57783 8.63804 8.59307C8.60175 8.60831 8.5693 8.63142 8.54304 8.66073C8.48379 8.72857 8.45364 8.81701 8.45911 8.90692C8.4532 8.99791 8.48278 9.08766 8.54164 9.1573C8.57306 9.1875 8.61044 9.21081 8.65139 9.22575C8.69233 9.24068 8.73595 9.24691 8.77943 9.24403C8.84278 9.24611 8.90496 9.22663 8.95578 9.18876C9.00661 9.1509 9.04307 9.0969 9.0592 9.03561H8.70949V8.83418H9.29V9.11394C9.26778 9.18433 9.23153 9.2495 9.18345 9.30551C9.13537 9.36153 9.07645 9.40723 9.01024 9.43986C8.93087 9.47626 8.84436 9.49443 8.75705 9.49302C8.65157 9.49529 8.54736 9.46972 8.45491 9.41888C8.36976 9.37112 8.30028 9.29969 8.25488 9.21325C8.20656 9.12001 8.18251 9.0161 8.18494 8.91111C8.18269 8.80569 8.20673 8.70138 8.25488 8.60757C8.30016 8.52151 8.36907 8.45017 8.45351 8.40195C8.5432 8.34978 8.64491 8.32183 8.74866 8.32081C8.87479 8.31547 8.99902 8.35294 9.10116 8.42712Z" fill="white"/>
<path d="M4.26562 7.64062H10.7344C10.7717 7.64062 10.8074 7.65544 10.8338 7.68181C10.8602 7.70819 10.875 7.74395 10.875 7.78125V10.1719H4.125V7.78125C4.125 7.74395 4.13982 7.70819 4.16619 7.68181C4.19256 7.65544 4.22833 7.64062 4.26562 7.64062V7.64062Z" stroke="#231F20" stroke-width="0.4" stroke-linecap="round" stroke-linejoin="round"/>
</g>
<defs>
<clipPath id="clip0_1_4060">
<rect width="9" height="9" fill="white" transform="translate(3 3)"/>
</clipPath>
</defs>
</svg>
