<svg width="36" height="36" viewBox="0 0 36 36" fill="none" xmlns="http://www.w3.org/2000/svg">
<circle cx="18" cy="18" r="18" fill="white"/>
<path d="M17.2855 11.2549C14.7362 11.4427 10.095 17.0357 11.872 18.5364L12.3163 18.9133C12.1963 19.2347 12.1539 19.5799 12.1926 19.9207C12.2938 20.9248 13.2748 21.7376 14.2232 21.7371C15.9591 25.7381 22.2782 25.7443 23.9145 21.8271C23.9663 21.6921 24.1879 21.0857 24.1879 20.5513C24.1879 20.0169 23.8841 19.7919 23.6901 19.7919C23.5894 19.4398 23.5247 19.3987 23.4026 19.2328C23.4758 19.1226 23.8616 18.5111 23.3098 17.9323C22.9971 17.6038 22.3744 17.3771 22.1578 17.3169C22.1128 16.9744 22.2973 15.5518 21.511 14.8211C22.1348 14.1737 22.501 13.4599 22.5004 12.8479C22.4987 11.6706 21.0773 11.3139 19.2958 12.0514L18.9178 12.2117C18.9161 12.21 18.2344 11.5423 18.2243 11.5339C17.9711 11.3122 17.6494 11.2279 17.2849 11.2549H17.2855ZM17.5172 11.7414C17.5903 11.7448 17.6595 11.7561 17.7236 11.7735C17.8907 11.8207 18.4436 12.4609 18.4436 12.4609C18.4436 12.4609 17.4165 13.0301 16.4648 13.8244C15.1817 14.8127 14.2125 16.2487 13.632 17.8057C13.1764 17.8946 12.7736 18.1534 12.5278 18.5111C12.3816 18.3885 12.1076 18.15 12.0598 18.0594C11.6689 17.3124 12.4873 15.8646 13.0611 15.0461C14.3886 13.1505 16.422 11.688 17.5172 11.7414V11.7414ZM19.3088 13.5808C19.3217 13.5797 19.3318 13.5904 19.333 13.6027C19.3333 13.6065 19.3327 13.6102 19.3312 13.6137C19.3298 13.6171 19.3274 13.6201 19.3245 13.6224C19.2374 13.6898 19.1593 13.768 19.0922 13.8553C19.0905 13.8577 19.0893 13.8604 19.0887 13.8633C19.088 13.8661 19.088 13.8691 19.0885 13.872C19.089 13.8748 19.0901 13.8776 19.0917 13.88C19.0933 13.8825 19.0954 13.8846 19.0978 13.8862C19.1019 13.8887 19.1066 13.8901 19.1113 13.8902C19.4815 13.893 20.0023 14.0229 20.3438 14.2136C20.3668 14.2266 20.3511 14.2704 20.3252 14.2648C18.2338 13.7856 16.624 14.8234 16.2797 15.0726C16.269 15.0793 16.2561 15.0754 16.2493 15.0647C16.2466 15.0607 16.2453 15.056 16.2455 15.0513C16.2457 15.0465 16.2474 15.0419 16.2505 15.0382H16.2482C16.7516 14.4566 17.3715 13.9515 17.9267 13.6674C17.9292 13.6659 17.9319 13.6649 17.9347 13.6645C17.9376 13.6641 17.9405 13.6643 17.9433 13.665C17.9461 13.6657 17.9487 13.667 17.951 13.6688C17.9532 13.6706 17.9551 13.6728 17.9565 13.6753C17.9584 13.6786 17.9595 13.6824 17.9595 13.6863C17.9595 13.6901 17.9584 13.6939 17.9565 13.6972C17.9126 13.7771 17.8271 13.9476 17.8007 14.0769C17.7999 14.0799 17.7998 14.083 17.8002 14.086C17.8007 14.089 17.8017 14.0919 17.8033 14.0945C17.8048 14.0971 17.8069 14.0994 17.8094 14.1012C17.8118 14.103 17.8146 14.1043 17.8176 14.1051C17.8207 14.1057 17.8239 14.1057 17.827 14.105C17.8301 14.1043 17.833 14.103 17.8356 14.1011C18.181 13.8654 18.7823 13.6134 19.3093 13.5808H19.3088ZM21.0986 15.3909C21.1684 15.4022 21.2353 15.4281 21.2961 15.4669C21.597 15.6666 21.6392 16.1503 21.6544 16.5041C21.6634 16.7061 21.6881 17.1949 21.696 17.3344C21.7151 17.655 21.8001 17.7006 21.9711 17.7551C22.0667 17.7866 22.155 17.8108 22.2861 17.8479C22.6832 17.9593 22.834 18.1303 22.9847 18.276C23.0614 18.351 23.1116 18.4489 23.1276 18.555C23.1743 18.897 22.9459 19.2615 22.119 19.6451C20.7145 20.2971 19.302 20.0788 19.0984 20.0557C18.492 19.9742 18.1466 20.7577 18.51 21.2938C19.1906 22.2984 22.1899 21.8957 23.0606 20.6526C23.0815 20.6227 23.064 20.6036 23.0387 20.6216C21.7826 21.4811 20.1216 21.7708 19.1771 21.4035C19.0337 21.3484 18.7333 21.2106 18.6968 20.9029C20.008 21.3084 20.8315 20.9254 20.8315 20.9254C20.8315 20.9254 20.8928 20.8404 20.8146 20.8483C20.8146 20.8483 19.7402 21.0069 18.7243 20.6346C18.9111 20.0287 19.5355 20.8179 21.6223 20.2194C22.0819 20.0878 22.6028 19.8876 23.073 19.5152C23.212 19.6597 23.3295 19.9371 23.3706 20.1879C23.4808 20.1682 23.7986 20.1711 23.7143 20.7313C23.6153 21.3287 23.3621 21.8141 22.9352 22.2613C22.6684 22.5502 22.3507 22.7876 21.9981 22.9616C21.8019 23.0646 21.5976 23.1511 21.3872 23.2204C19.7785 23.7452 18.1303 23.1675 17.5982 21.9266C17.5549 21.8319 17.5192 21.7339 17.4913 21.6336C17.2652 20.8157 17.4576 19.8341 18.0589 19.2165C18.096 19.1771 18.1331 19.131 18.1331 19.0725C18.1279 19.0223 18.1077 18.9749 18.0752 18.9364C17.8648 18.6326 17.1381 18.1123 17.2843 17.1071C17.3895 16.3854 18.0201 15.8769 18.609 15.9073L18.7598 15.9163C19.0146 15.9315 19.2368 15.9641 19.4471 15.9726C19.7987 15.9877 20.1148 15.9366 20.4889 15.6249C20.6155 15.5197 20.7167 15.4286 20.8877 15.3999C20.9567 15.3825 21.0285 15.3794 21.0986 15.3909V15.3909ZM20.9856 16.6104C20.7983 16.6408 20.791 16.8737 20.8579 17.1954C20.8956 17.3754 20.9625 17.529 21.0379 17.6246C21.1305 17.6128 21.2243 17.6128 21.3169 17.6246C21.3675 17.5093 21.3765 17.3119 21.3315 17.0959C21.264 16.7752 21.1729 16.5801 20.9856 16.6104ZM18.8374 17.4851C18.6761 17.5043 18.5225 17.5647 18.3913 17.6606C18.3013 17.7264 18.217 17.8181 18.2288 17.8727C18.2541 17.9852 18.5303 17.7917 18.9094 17.7686C19.1192 17.7557 19.2936 17.8209 19.4275 17.8794C19.5625 17.9396 19.644 17.9779 19.6766 17.9441C19.7335 17.8856 19.572 17.6612 19.3121 17.5504C19.1622 17.4881 18.9986 17.4656 18.8374 17.4851V17.4851ZM21.2567 17.9323V17.9334C21.0266 17.9295 21.0176 18.4082 21.2488 18.4121C21.48 18.4161 21.4885 17.9368 21.2567 17.9323ZM19.1575 18.0347C18.8846 18.0774 18.7058 18.2304 18.7519 18.3379C18.7789 18.348 18.7868 18.3621 18.9077 18.3137C19.0875 18.2462 19.2815 18.226 19.4713 18.2552C19.5591 18.2653 19.6007 18.2715 19.6198 18.2411C19.6637 18.1736 19.4488 18.0004 19.1575 18.0347V18.0347ZM20.481 18.2541C20.4546 18.2558 20.4291 18.2645 20.4071 18.2792C20.3851 18.2939 20.3673 18.3141 20.3556 18.3379C20.2538 18.5454 20.6818 18.7541 20.7853 18.5488C20.8618 18.3936 20.6402 18.2355 20.4816 18.2541H20.481ZM14.0044 18.2709C14.55 18.2878 15.085 18.6731 15.2132 19.5011C15.3499 20.3921 15.0726 21.2601 14.1872 21.2392L14.1883 21.2404C13.5021 21.2218 12.7613 20.6036 12.6876 19.8712C12.583 18.8346 13.303 18.2484 14.0044 18.2704V18.2709ZM13.965 18.7884C13.8713 18.7855 13.7779 18.8021 13.6909 18.8373C13.604 18.8724 13.5253 18.9253 13.4599 18.9926C13.1978 19.2812 13.1972 19.7002 13.3091 19.7166C13.4374 19.7334 13.4323 19.5225 13.5313 19.3672C13.5871 19.2814 13.6745 19.2212 13.7746 19.1998C13.8747 19.1784 13.9792 19.1975 14.0651 19.2531L14.0685 19.2547C14.4173 19.4831 14.109 19.7886 14.136 20.1154C14.1782 20.6171 14.6906 20.607 14.7857 20.3854C14.7917 20.3743 14.7943 20.3617 14.7931 20.3492C14.7919 20.3366 14.787 20.3248 14.779 20.3151C14.7801 20.3421 14.8003 20.2774 14.6794 20.3038L14.6783 20.3055C14.6383 20.3151 14.4977 20.3499 14.4235 20.2352C14.2671 19.9944 14.7576 19.6221 14.5135 19.1597C14.3768 18.897 14.1675 18.7941 13.965 18.7884V18.7884Z" fill="black"/>
</svg>
