<svg width="36" height="36" viewBox="0 0 36 36" fill="none" xmlns="http://www.w3.org/2000/svg">
<circle cx="18" cy="18" r="18" fill="white"/>
<g clip-path="url(#clip0_1_5595)">
<path d="M15.75 26.0001C17.268 26.0001 18.5 24.8054 18.5 23.3334V20.6667H15.75C14.232 20.6667 13 21.8614 13 23.3334C13 24.8054 14.232 26.0001 15.75 26.0001Z" fill="#0ACF83"/>
<path d="M13 17.9999C13 16.5279 14.232 15.3333 15.75 15.3333H18.5V20.6666H15.75C14.232 20.6666 13 19.4719 13 17.9999Z" fill="#A259FF"/>
<path d="M13 12.6667C13 11.1947 14.232 10 15.75 10H18.5V15.3333H15.75C14.232 15.3333 13 14.1387 13 12.6667Z" fill="#F24E1E"/>
<path d="M18.5 10H21.25C22.768 10 24 11.1947 24 12.6667C24 14.1387 22.768 15.3333 21.25 15.3333H18.5V10Z" fill="#FF7262"/>
<path d="M24 17.9999C24 19.4719 22.768 20.6666 21.25 20.6666C19.732 20.6666 18.5 19.4719 18.5 17.9999C18.5 16.5279 19.732 15.3333 21.25 15.3333C22.768 15.3333 24 16.5279 24 17.9999Z" fill="#1ABCFE"/>
</g>
<defs>
<clipPath id="clip0_1_5595">
<rect width="11" height="16" fill="white" transform="translate(13 10)"/>
</clipPath>
</defs>
</svg>
