<svg width="36" height="36" viewBox="0 0 36 36" fill="none" xmlns="http://www.w3.org/2000/svg">
<circle cx="18" cy="18" r="18" fill="white"/>
<g clip-path="url(#clip0_286_2919)">
<path d="M13.3233 12C12.4103 12 11.7347 12.7521 11.765 13.5676C11.7941 14.3512 11.7563 15.3661 11.4849 16.1936C11.2126 17.0236 10.7521 17.5494 10 17.6169V18.3791C10.7521 18.4466 11.2126 18.9724 11.4849 19.8024C11.7563 20.63 11.7941 21.6448 11.765 22.4284C11.7347 23.2438 12.4103 23.996 13.3234 23.996H22.6779C23.5909 23.996 24.2663 23.2439 24.2361 22.4284C24.2071 21.6448 24.2448 20.63 24.5162 19.8024C24.7886 18.9724 25.2479 18.4465 26 18.3791V17.6169C25.2479 17.5494 24.7886 17.0236 24.5162 16.1936C24.2447 15.3662 24.2071 14.3512 24.2361 13.5676C24.2663 12.7522 23.5909 12 22.6779 12H13.3231H13.3233V12ZM20.8475 19.3843C20.8475 20.5074 19.9575 21.1884 18.4805 21.1884H15.9661C15.8942 21.1884 15.8253 21.1615 15.7744 21.1136C15.7236 21.0658 15.695 21.0009 15.695 20.9332V15.0628C15.695 15.0293 15.702 14.9961 15.7156 14.9651C15.7292 14.9342 15.7492 14.906 15.7744 14.8823C15.7996 14.8586 15.8295 14.8398 15.8624 14.827C15.8953 14.8141 15.9306 14.8075 15.9662 14.8075H18.4661C19.6977 14.8075 20.5059 15.4355 20.5059 16.3995C20.5059 17.0761 19.9622 17.6819 19.2695 17.7879V17.8233C20.2126 17.9206 20.8475 18.5353 20.8475 19.3843V19.3843ZM18.2063 15.6166H16.7727V17.5225H17.9802C18.9136 17.5225 19.4283 17.1688 19.4283 16.5364C19.4283 15.9439 18.9857 15.6166 18.2063 15.6166H18.2063ZM16.7727 18.2788V20.3791H18.2591C19.2308 20.3791 19.7457 20.0121 19.7457 19.3223C19.7457 18.6324 19.2165 18.2786 18.1966 18.2786H16.7727V18.2788Z" fill="#7E13F8"/>
</g>
<defs>
<clipPath id="clip0_286_2919">
<rect width="16" height="12" fill="white" transform="translate(10 12)"/>
</clipPath>
</defs>
</svg>
