<svg width="36" height="36" viewBox="0 0 36 36" fill="none" xmlns="http://www.w3.org/2000/svg">
<circle cx="18" cy="18" r="18" fill="white"/>
<path d="M21.868 15.7069C21.868 15.7069 20.5707 19.7756 20.4647 20.1116C20.138 17.5616 19.8082 15.012 19.4753 12.4629C17.2647 12.4629 16.0827 14.0362 15.458 15.6969L13.748 20.1216C13.738 19.8042 13.508 15.7449 13.508 15.7449C13.372 13.7102 11.508 12.4716 10 12.4716L11.826 23.5382C14.142 23.5282 15.3907 21.9642 16.0447 20.3036C16.0447 20.3036 17.438 16.7049 17.4953 16.5416C17.5053 16.6949 18.4953 23.5376 18.4953 23.5376C20.8207 23.5376 22.07 22.0696 22.742 20.4669L26 12.4722C23.7033 12.4722 22.4927 14.0362 21.868 15.7062V15.7069Z" fill="#4353FF"/>
</svg>
