<svg width="36" height="36" viewBox="0 0 36 36" fill="none" xmlns="http://www.w3.org/2000/svg">
<circle opacity="0.1" cx="18" cy="18" r="18" fill="#D32F2F"/>
<path d="M18.6274 11C14.7905 11 12.75 13.4588 12.75 16.1398C12.75 17.3831 13.4448 18.9336 14.5569 19.4254C14.7258 19.5015 14.8176 19.4691 14.8553 19.3125C14.8885 19.1935 15.0346 18.6204 15.1055 18.35C15.1181 18.3078 15.1192 18.2631 15.1088 18.2203C15.0983 18.1775 15.0766 18.1383 15.046 18.1068C14.6768 17.6798 14.3836 16.9019 14.3836 16.1721C14.3836 14.3022 15.8702 12.4866 18.3999 12.4866C20.5874 12.4866 22.1178 13.9076 22.1178 15.9403C22.1178 18.2371 20.9024 19.8261 19.323 19.8261C18.4489 19.8261 17.7979 19.1401 18.0044 18.2914C18.2538 17.2808 18.7429 16.194 18.7429 15.4651C18.7429 14.8115 18.3736 14.2708 17.6194 14.2708C16.7295 14.2708 16.0076 15.1519 16.0076 16.3349C16.0076 17.0865 16.2736 17.594 16.2736 17.594L15.2298 21.8141C14.9533 22.9385 15.2674 24.7594 15.2945 24.916C15.3111 25.0026 15.4082 25.0298 15.4625 24.9589C15.5491 24.8451 16.6131 23.327 16.9115 22.2298C17.02 21.8299 17.4654 20.2085 17.4654 20.2085C17.7585 20.7379 18.6046 21.1815 19.5059 21.1815C22.1869 21.1815 24.1241 18.8251 24.1241 15.9009C24.1145 13.0974 21.7153 11 18.6274 11Z" fill="#D32F2F"/>
</svg>
