<svg width="36" height="36" viewBox="0 0 36 36" fill="none" xmlns="http://www.w3.org/2000/svg">
<circle cx="18" cy="18" r="18" fill="white"/>
<path d="M23.5 18H20V19H22.4C22.2284 19.7417 21.8728 20.4282 21.3659 20.9962C20.8591 21.5642 20.2174 21.9954 19.5 22.25L13.75 16.5C14.0606 15.6215 14.6363 14.861 15.3976 14.3237C16.1588 13.7863 17.0682 13.4985 18 13.5C18.7224 13.5051 19.4335 13.6797 20.0761 14.0097C20.7188 14.3397 21.275 14.8159 21.7 15.4L22.45 14.75C21.8261 13.8977 20.9699 13.2432 19.9837 12.8648C18.9975 12.4864 17.9232 12.4002 16.8893 12.6165C15.8554 12.8327 14.9057 13.3423 14.1539 14.0843C13.402 14.8262 12.8799 15.7691 12.65 16.8L19.25 23.4C20.4555 23.0961 21.5264 22.4014 22.2954 21.4244C23.0643 20.4474 23.4879 19.2432 23.5 18V18ZM12.5 18.05C12.5016 18.7578 12.6439 19.4583 12.9185 20.1106C13.1932 20.763 13.5948 21.3542 14.1 21.85C15.1069 22.8625 16.4722 23.4373 17.9 23.45L12.5 18.05Z" fill="white"/>
<path d="M18 11C16.6155 11 15.2622 11.4105 14.111 12.1797C12.9599 12.9489 12.0627 14.0421 11.5328 15.3212C11.003 16.6003 10.8644 18.0078 11.1345 19.3656C11.4046 20.7235 12.0713 21.9708 13.0503 22.9497C14.0292 23.9287 15.2765 24.5954 16.6344 24.8655C17.9922 25.1356 19.3997 24.997 20.6788 24.4672C21.9579 23.9373 23.0511 23.0401 23.8203 21.889C24.5895 20.7378 25 19.3845 25 18C24.9946 16.1451 24.2554 14.3678 22.9438 13.0562C21.6322 11.7446 19.8549 11.0054 18 11V11ZM14.1 21.9C13.0876 20.8931 12.5127 19.5278 12.5 18.1L17.95 23.5C16.5102 23.4744 15.1339 22.9025 14.1 21.9V21.9ZM19.2 23.35L12.65 16.8C12.8799 15.7691 13.402 14.8262 14.1539 14.0842C14.9057 13.3423 15.8554 12.8327 16.8893 12.6164C17.9232 12.4001 18.9975 12.4864 19.9837 12.8647C20.9699 13.2431 21.8261 13.8977 22.45 14.75L21.7 15.4C21.275 14.8159 20.7188 14.3396 20.0761 14.0096C19.4335 13.6796 18.7224 13.5051 18 13.5C17.0699 13.5057 16.1639 13.7963 15.404 14.3327C14.6441 14.8691 14.0668 15.6255 13.75 16.5L19.5 22.25C20.2174 21.9954 20.8591 21.5641 21.3659 20.9961C21.8728 20.4281 22.2284 19.7417 22.4 19H20V18H23.5C23.4932 19.2464 23.0645 20.4538 22.2836 21.4254C21.5027 22.3969 20.4158 23.0753 19.2 23.35V23.35Z" fill="#663399"/>
</svg>
