<svg width="20" height="20" viewBox="0 0 20 20" fill="none" xmlns="http://www.w3.org/2000/svg">
<circle opacity="0.1" cx="10" cy="10" r="10" fill="#6D58F5"/>
<path d="M9.53158 13.0414L6.78158 10.2914C6.73991 10.2497 6.71033 10.2046 6.69283 10.156C6.6756 10.1074 6.66699 10.0553 6.66699 9.99975C6.66699 9.94419 6.6756 9.89211 6.69283 9.8435C6.71033 9.79489 6.73991 9.74975 6.78158 9.70808L9.53158 6.95808C9.60796 6.88169 9.70338 6.84169 9.81783 6.83808C9.93255 6.83475 10.0316 6.87475 10.1149 6.95808C10.1982 7.03447 10.2417 7.12989 10.2453 7.24433C10.2487 7.35906 10.2087 7.45808 10.1253 7.54142L8.08366 9.58308H12.7399C12.858 9.58308 12.957 9.62294 13.037 9.70267C13.1167 9.78267 13.1566 9.88169 13.1566 9.99975C13.1566 10.1178 13.1167 10.2167 13.037 10.2964C12.957 10.3764 12.858 10.4164 12.7399 10.4164H8.08366L10.1253 12.4581C10.2017 12.5345 10.2417 12.6317 10.2453 12.7497C10.2487 12.8678 10.2087 12.965 10.1253 13.0414C10.0489 13.1247 9.95171 13.1664 9.83366 13.1664C9.7156 13.1664 9.61491 13.1247 9.53158 13.0414Z" fill="#6D58F5"/>
</svg>
