<svg width="30" height="30" viewBox="0 0 30 30" fill="none" xmlns="http://www.w3.org/2000/svg">
<path d="M21.2518 8.74997H8.75176C8.40176 8.74997 8.06426 8.77497 7.73926 8.82497C7.91426 8.47497 8.16426 8.15001 8.46426 7.85001L12.5268 3.775C14.2393 2.075 17.0143 2.075 18.7268 3.775L20.9143 5.98745C21.7143 6.77495 22.1393 7.77496 22.1893 8.81246C21.8893 8.76246 21.5768 8.74997 21.2518 8.74997Z" stroke="#292D32" stroke-width="1.5" stroke-linecap="round" stroke-linejoin="round"/>
<path d="M10.525 26.325C9.6625 27.775 8.075 28.75 6.25 28.75C4.425 28.75 2.8375 27.775 1.975 26.325C1.5125 25.575 1.25 24.6875 1.25 23.75C1.25 20.9875 3.4875 18.75 6.25 18.75C9.0125 18.75 11.25 20.9875 11.25 23.75C11.25 24.6875 10.9875 25.575 10.525 26.325Z" stroke="#292D32" stroke-width="1.5" stroke-linecap="round" stroke-linejoin="round"/>
<path d="M8.11465 23.7246H4.38965" stroke="#292D32" stroke-width="1.5" stroke-linecap="round" stroke-linejoin="round"/>
<path d="M6.25 21.8994V25.6369" stroke="#292D32" stroke-width="1.5" stroke-linecap="round" stroke-linejoin="round"/>
<path d="M27.5 21.25C27.5 25 25 27.5 21.25 27.5H9.5375C9.925 27.175 10.2625 26.775 10.525 26.325C10.9875 25.575 11.25 24.6875 11.25 23.75C11.25 20.9875 9.0125 18.75 6.25 18.75C4.75 18.75 3.4125 19.4125 2.5 20.45V15C2.5 11.6 4.55 9.225 7.7375 8.825C8.0625 8.775 8.4 8.75 8.75 8.75H21.25C21.575 8.75 21.8875 8.76248 22.1875 8.81248C25.4125 9.18748 27.5 11.575 27.5 15V21.25Z" stroke="#292D32" stroke-width="1.5" stroke-linecap="round" stroke-linejoin="round"/>
<path d="M27.5 15.625H23.75C22.375 15.625 21.25 16.75 21.25 18.125C21.25 19.5 22.375 20.625 23.75 20.625H27.5" stroke="#292D32" stroke-width="1.5" stroke-linecap="round" stroke-linejoin="round"/>
</svg>
