<svg width="16" height="16" viewBox="0 0 16 16" fill="none" xmlns="http://www.w3.org/2000/svg">
<path d="M10.4749 5.52545C10.5684 5.61918 10.6209 5.74617 10.6209 5.87857C10.6209 6.01097 10.5684 6.13796 10.4749 6.2317L6.23114 10.4754C6.18576 10.5221 6.13127 10.5589 6.07107 10.5837C6.01086 10.6084 5.94621 10.6205 5.88114 10.6192C5.81511 10.6206 5.74949 10.6086 5.68825 10.5839C5.62701 10.5592 5.57143 10.5223 5.52489 10.4754C5.43138 10.3817 5.37887 10.2547 5.37887 10.1223C5.37887 9.98992 5.43138 9.86293 5.52489 9.7692L9.76864 5.52545C9.86237 5.43194 9.98936 5.37943 10.1218 5.37943C10.2542 5.37943 10.3812 5.43194 10.4749 5.52545ZM8.70614 10.8317L6.93739 12.5942C6.70658 12.828 6.43166 13.0135 6.12857 13.1402C5.82548 13.2669 5.50026 13.3321 5.17176 13.3321C4.84326 13.3321 4.51804 13.2669 4.21495 13.1402C3.91186 13.0135 3.63694 12.828 3.40614 12.5942C2.9386 12.1255 2.67604 11.4906 2.67604 10.8286C2.67604 10.1666 2.9386 9.53161 3.40614 9.06295L5.16864 7.2942C5.25482 7.19909 5.30112 7.07447 5.29796 6.94617C5.2948 6.81786 5.24242 6.69567 5.15166 6.60492C5.06091 6.51416 4.93873 6.46178 4.81042 6.45862C4.68211 6.45546 4.5575 6.50177 4.46239 6.58795L2.69364 8.3567C2.03722 9.01311 1.66846 9.90339 1.66846 10.8317C1.66846 11.76 2.03722 12.6503 2.69364 13.3067C3.35005 13.9631 4.24033 14.3319 5.16864 14.3319C6.09694 14.3319 6.98722 13.9631 7.64364 13.3067L9.41239 11.5379C9.50589 11.4442 9.5584 11.3172 9.5584 11.1848C9.5584 11.0524 9.50589 10.9254 9.41239 10.8317C9.3664 10.7846 9.31147 10.7473 9.25083 10.7217C9.19019 10.6962 9.12506 10.683 9.05926 10.683C8.99346 10.683 8.92833 10.6962 8.86769 10.7217C8.80705 10.7473 8.75212 10.7846 8.70614 10.8317V10.8317ZM13.3061 2.6942C12.9811 2.36915 12.5953 2.11131 12.1706 1.9354C11.7459 1.75949 11.2908 1.66895 10.8311 1.66895C10.3715 1.66895 9.91632 1.75949 9.49166 1.9354C9.067 2.11131 8.68115 2.36915 8.35614 2.6942L6.58739 4.46295C6.50121 4.55806 6.4549 4.68267 6.45806 4.81098C6.46122 4.93929 6.5136 5.06147 6.60436 5.15223C6.69511 5.24298 6.81729 5.29536 6.9456 5.29852C7.07391 5.30168 7.19852 5.25538 7.29364 5.1692L9.06239 3.4067C9.29319 3.17294 9.56811 2.98735 9.8712 2.86067C10.1743 2.734 10.4995 2.66877 10.828 2.66877C11.1565 2.66877 11.4817 2.734 11.7848 2.86067C12.0879 2.98735 12.3628 3.17294 12.5936 3.4067C13.0612 3.87536 13.3237 4.51033 13.3237 5.17232C13.3237 5.83432 13.0612 6.46928 12.5936 6.93795L10.8311 8.7067C10.7841 8.75268 10.7467 8.80761 10.7212 8.86825C10.6956 8.92889 10.6825 8.99403 10.6825 9.05982C10.6825 9.12562 10.6956 9.19075 10.7212 9.25139C10.7467 9.31203 10.7841 9.36696 10.8311 9.41295C10.8762 9.46044 10.9305 9.49825 10.9907 9.52404C11.0508 9.54983 11.1157 9.56307 11.1811 9.56295C11.2475 9.56284 11.3132 9.54952 11.3743 9.52377C11.4355 9.49801 11.4909 9.46034 11.5374 9.41295L13.3061 7.6442C13.9611 6.987 14.3288 6.09701 14.3288 5.1692C14.3288 4.24138 13.9611 3.3514 13.3061 2.6942V2.6942Z" fill="#C9C9C9"/>
</svg>
