<svg width="15" height="15" viewBox="0 0 15 15" fill="none" xmlns="http://www.w3.org/2000/svg">
<circle cx="7.49984" cy="7.49984" r="7.49984" fill="#FFD2B5"/>
<g clip-path="url(#clip0_1_4042)">
<path d="M4.82807 10.875L4.12354 10.1719H4.82807V10.875ZM10.1718 10.875L10.8763 10.1719H10.1718V10.875Z" fill="#AF5325"/>
<path d="M10.1719 4.8277H9.04834V3.7041L10.1719 4.8277Z" fill="#B2B2B2"/>
<path d="M9.04688 3.70312H5.05172C4.99242 3.70312 4.93555 3.72668 4.89361 3.76861C4.85168 3.81055 4.82813 3.86742 4.82813 3.92672V11.0986C4.82812 11.158 4.85164 11.215 4.89353 11.2572C4.93542 11.2994 4.99229 11.3232 5.05172 11.3236H9.94828C9.97831 11.3234 10.008 11.3172 10.0356 11.3054C10.0632 11.2936 10.0882 11.2763 10.109 11.2547C10.1298 11.2331 10.1461 11.2075 10.1569 11.1795C10.1677 11.1515 10.1728 11.1216 10.1719 11.0916V4.82812H9.04688V3.70312Z" fill="#F1F1F1"/>
<path d="M9.04688 3.70312H5.05172C4.99242 3.70312 4.93555 3.72668 4.89361 3.76861C4.85168 3.81055 4.82813 3.86742 4.82813 3.92672V11.0986C4.82812 11.158 4.85164 11.215 4.89353 11.2572C4.93542 11.2994 4.99229 11.3232 5.05172 11.3236H9.94828C9.97831 11.3234 10.008 11.3172 10.0356 11.3054C10.0632 11.2936 10.0882 11.2763 10.109 11.2547C10.1298 11.2331 10.1461 11.2075 10.1569 11.1795C10.1677 11.1515 10.1728 11.1216 10.1719 11.0916V4.82812H9.04688V3.70312Z" stroke="#231F20" stroke-width="0.4" stroke-linecap="round" stroke-linejoin="round"/>
<path d="M10.1718 4.8277H9.04822V3.7041L10.1718 4.8277ZM4.82807 10.8746L4.12354 10.1714H4.82807V10.8746ZM10.1718 10.8746L10.8763 10.1714H10.1718V10.8746Z" stroke="#231F20" stroke-width="0.4" stroke-linecap="round" stroke-linejoin="round"/>
<path d="M4.26562 7.64062H10.7344C10.7717 7.64062 10.8074 7.65544 10.8338 7.68181C10.8602 7.70819 10.875 7.74395 10.875 7.78125V10.1719H4.125V7.78125C4.125 7.74395 4.13982 7.70819 4.16619 7.68181C4.19256 7.65544 4.22833 7.64062 4.26562 7.64062Z" fill="#E17E3D"/>
<path d="M4.26562 7.64062H10.7344C10.7717 7.64062 10.8074 7.65544 10.8338 7.68181C10.8602 7.70819 10.875 7.74395 10.875 7.78125V10.1719H4.125V7.78125C4.125 7.74395 4.13982 7.70819 4.16619 7.68181C4.19256 7.65544 4.22833 7.64062 4.26562 7.64062V7.64062Z" stroke="#231F20" stroke-width="0.4" stroke-linecap="round" stroke-linejoin="round"/>
<path d="M6.67454 9.31269C6.64031 9.36607 6.59151 9.40852 6.53391 9.43503C6.46563 9.46643 6.39108 9.48183 6.31594 9.48004C6.20201 9.48507 6.08966 9.45191 5.99672 9.38582C5.95494 9.35546 5.92057 9.31603 5.89621 9.27048C5.87186 9.22493 5.85814 9.17446 5.8561 9.12285H6.15141C6.15356 9.16165 6.17011 9.19825 6.19782 9.2255C6.21147 9.23795 6.22743 9.24758 6.24481 9.25386C6.26218 9.26013 6.28062 9.26292 6.29907 9.26207C6.3144 9.26309 6.32977 9.261 6.34427 9.25592C6.35877 9.25085 6.3721 9.24289 6.38344 9.23254C6.39405 9.2227 6.40242 9.21071 6.408 9.19737C6.41358 9.18403 6.41623 9.16965 6.41579 9.15519C6.41617 9.14163 6.41375 9.12813 6.40866 9.11554C6.40358 9.10296 6.39595 9.09156 6.38626 9.08207C6.36626 9.06158 6.34235 9.04532 6.31594 9.03425C6.28782 9.0216 6.24844 9.00613 6.19922 8.98925C6.13808 8.96903 6.0784 8.9446 6.02063 8.91613C5.97291 8.89226 5.9322 8.8564 5.90251 8.81207C5.86669 8.75961 5.84892 8.69692 5.85188 8.63347C5.8506 8.57047 5.86877 8.5086 5.90391 8.45628C5.93902 8.4054 5.98776 8.36544 6.04454 8.34097C6.11088 8.31341 6.18225 8.3 6.25407 8.3016C6.36339 8.29511 6.47148 8.32748 6.55922 8.393C6.59695 8.42339 6.62785 8.46138 6.6499 8.50451C6.67195 8.54765 6.68466 8.59494 6.68719 8.64332H6.39891C6.39562 8.60922 6.3813 8.57713 6.35813 8.55191C6.33301 8.52969 6.30023 8.51809 6.26672 8.51957C6.23832 8.51849 6.21043 8.52745 6.18797 8.54488C6.17781 8.55491 6.16991 8.567 6.16481 8.58035C6.15972 8.59369 6.15755 8.60797 6.15844 8.62222C6.15791 8.64782 6.16752 8.67258 6.18516 8.69113C6.20482 8.71037 6.22766 8.72606 6.25266 8.73753L6.36938 8.78253C6.4318 8.80234 6.49247 8.82727 6.55079 8.85707C6.59842 8.88226 6.63939 8.91841 6.67032 8.96254C6.70601 9.01663 6.72372 9.0806 6.72094 9.14535C6.72138 9.20437 6.70531 9.26233 6.67454 9.31269ZM7.09079 8.31847L7.37204 9.18472L7.65329 8.31847H7.95001L7.55063 9.46879H7.19063L6.79688 8.31847H7.09079ZM8.95266 8.4141C9.04419 8.48225 9.1061 8.58291 9.12563 8.69535H8.83172C8.81236 8.65419 8.78098 8.61987 8.74172 8.59691C8.68478 8.56591 8.61931 8.55422 8.55516 8.5636C8.491 8.57298 8.43163 8.60293 8.38594 8.64894C8.33014 8.71621 8.30199 8.80217 8.30719 8.88941C8.30065 8.98097 8.33046 9.07141 8.39016 9.14113C8.42144 9.17152 8.45877 9.195 8.49971 9.21002C8.54066 9.22504 8.58431 9.23127 8.62782 9.22832C8.69013 9.22935 8.75116 9.21064 8.80219 9.17488C8.85294 9.13736 8.88959 9.08387 8.90626 9.023H8.55751V8.82332H9.1411V9.10457C9.11848 9.1729 9.08318 9.23635 9.03704 9.2916C8.98647 9.3506 8.92422 9.39848 8.85422 9.43222C8.77438 9.46864 8.68744 9.48689 8.59969 9.48566C8.49321 9.48793 8.38799 9.46223 8.29454 9.41113C8.20935 9.36303 8.13998 9.29121 8.09485 9.20441C8.04585 9.11078 8.02118 9.00632 8.02313 8.90066C8.02131 8.79456 8.04596 8.68968 8.09485 8.5955C8.13998 8.50871 8.20935 8.43689 8.29454 8.38879C8.38652 8.33784 8.49035 8.31213 8.59547 8.31425C8.72233 8.30686 8.84803 8.34199 8.95266 8.4141Z" fill="white"/>
<path d="M7.15283 5.24316H7.84893V5.93926H7.15283V5.24316Z" stroke="#E17E3D" stroke-width="0.2" stroke-linecap="round" stroke-linejoin="round"/>
<path d="M6.22332 5.97984C6.41515 5.97984 6.57066 5.82433 6.57066 5.6325C6.57066 5.44067 6.41515 5.28516 6.22332 5.28516C6.03149 5.28516 5.87598 5.44067 5.87598 5.6325C5.87598 5.82433 6.03149 5.97984 6.22332 5.97984Z" stroke="#E17E3D" stroke-width="0.2" stroke-linecap="round" stroke-linejoin="round"/>
<path d="M6.5708 5.63281H7.15299" stroke="#E17E3D" stroke-width="0.2" stroke-linecap="round" stroke-linejoin="round"/>
<path d="M8.77703 5.97984C8.96886 5.97984 9.12437 5.82433 9.12437 5.6325C9.12437 5.44067 8.96886 5.28516 8.77703 5.28516C8.5852 5.28516 8.42969 5.44067 8.42969 5.6325C8.42969 5.82433 8.5852 5.97984 8.77703 5.97984Z" stroke="#E17E3D" stroke-width="0.2" stroke-linecap="round" stroke-linejoin="round"/>
<path d="M7.84744 5.63281H8.42963M6.52979 7.02078C6.52979 6.76344 6.63201 6.51664 6.81398 6.33467C6.99595 6.1527 7.24275 6.05047 7.5001 6.05047C7.75744 6.05047 8.00424 6.1527 8.18621 6.33467C8.36818 6.51664 8.47041 6.76344 8.47041 7.02078" stroke="#E17E3D" stroke-width="0.2" stroke-linecap="round" stroke-linejoin="round"/>
</g>
<defs>
<clipPath id="clip0_1_4042">
<rect width="9" height="9" fill="white" transform="translate(3 3)"/>
</clipPath>
</defs>
</svg>
