<svg width="25" height="25" viewBox="0 0 25 25" fill="none" xmlns="http://www.w3.org/2000/svg">
<g clip-path="url(#clip0_1_1073)">
<path d="M0 12.5C0 5.59635 5.59635 0 12.5 0C19.4036 0 25 5.59635 25 12.5C25 19.4036 19.4036 25 12.5 25C5.59635 25 0 19.4036 0 12.5Z" fill="#6563FF"/>
<path fill-rule="evenodd" clip-rule="evenodd" d="M9.02032 7.72031C9.02032 8.5375 8.40522 9.19115 7.4172 9.19115H7.39897C6.44845 9.19115 5.83334 8.5375 5.83334 7.72031C5.83334 6.88542 6.46668 6.25 7.43595 6.25C8.4047 6.25 9.00209 6.88542 9.02032 7.72031ZM8.83386 10.3531V18.8646H6.00053V10.3531H8.83386ZM19.0495 18.8646V13.9844C19.0495 11.3698 17.6521 10.1531 15.788 10.1531C14.2839 10.1531 13.6109 10.9792 13.2349 11.5589V10.3531H10.4016C10.4391 11.1521 10.4016 18.8646 10.4016 18.8646H13.2349V14.1109C13.2349 13.8568 13.2531 13.6031 13.3281 13.4208C13.5328 12.9125 13.999 12.3865 14.7813 12.3865C15.8073 12.3865 16.2172 13.1672 16.2172 14.3109V18.8646H19.0495Z" fill="white"/>
</g>
<defs>
<clipPath id="clip0_1_1073">
<rect width="25" height="25" fill="white"/>
</clipPath>
</defs>
</svg>
