<svg width="122" height="106" viewBox="0 0 122 106" fill="none" xmlns="http://www.w3.org/2000/svg">
<rect x="0.5" y="0.5" width="121" height="105" rx="11.5" fill="white" stroke="white"/>
<path d="M59.125 65.1666L48.125 54.1666C47.9583 54 47.84 53.8194 47.77 53.625C47.7011 53.4305 47.6666 53.2222 47.6666 53C47.6666 52.7778 47.7011 52.5694 47.77 52.375C47.84 52.1805 47.9583 52 48.125 51.8333L59.125 40.8333C59.4305 40.5278 59.8122 40.3678 60.27 40.3533C60.7288 40.34 61.125 40.5 61.4583 40.8333C61.7916 41.1389 61.9655 41.5205 61.98 41.9783C61.9933 42.4372 61.8333 42.8333 61.5 43.1666L53.3333 51.3333H71.9583C72.4305 51.3333 72.8266 51.4928 73.1466 51.8116C73.4655 52.1316 73.625 52.5278 73.625 53C73.625 53.4722 73.4655 53.8678 73.1466 54.1866C72.8266 54.5066 72.4305 54.6666 71.9583 54.6666H53.3333L61.5 62.8333C61.8055 63.1389 61.9655 63.5278 61.98 64C61.9933 64.4722 61.8333 64.8611 61.5 65.1666C61.1944 65.5 60.8055 65.6666 60.3333 65.6666C59.8611 65.6666 59.4583 65.5 59.125 65.1666V65.1666Z" fill="black"/>
</svg>
