<svg width="36" height="36" viewBox="0 0 36 36" fill="none" xmlns="http://www.w3.org/2000/svg">
<circle cx="18" cy="18" r="18" fill="white"/>
<path d="M14.5 16.8498C14.9667 14.9831 16.1333 14.0498 18 14.0498C20.8 14.0498 21.15 16.1498 22.55 16.4998C23.4833 16.7331 24.3 16.3831 25 15.4498C24.5333 17.3165 23.3667 18.2498 21.5 18.2498C18.7 18.2498 18.35 16.1498 16.95 15.7998C16.0167 15.5665 15.2 15.9165 14.5 16.8498ZM11 21.0498C11.4667 19.1831 12.6333 18.2498 14.5 18.2498C17.3 18.2498 17.65 20.3498 19.05 20.6998C19.9833 20.9331 20.8 20.5831 21.5 19.6498C21.0333 21.5165 19.8667 22.4498 18 22.4498C15.2 22.4498 14.85 20.3498 13.45 19.9998C12.5167 19.7665 11.7 20.1165 11 21.0498Z" fill="#44A8B3"/>
</svg>
