<svg width="36" height="36" viewBox="0 0 36 36" fill="none" xmlns="http://www.w3.org/2000/svg">
<circle cx="18" cy="18" r="18" fill="white"/>
<g clip-path="url(#clip0_286_2939)">
<path d="M17.7145 10C17.5972 10 17.5078 10.0007 17.4758 10.0047C17.395 10.0128 17.3141 10.0201 17.2332 10.0267C14.9618 10.2307 12.8332 11.4567 11.4852 13.3414C10.7397 14.3757 10.255 15.5748 10.0725 16.8367C10.0085 17.276 10.0005 17.406 10.0005 18.0014C10.0005 18.5967 10.0085 18.7274 10.0725 19.1667C10.5072 22.1707 12.6458 24.6947 15.5452 25.63C16.0645 25.7967 16.6118 25.9114 17.2345 25.98C17.4765 26.0067 18.5245 26.0067 18.7672 25.98C19.8412 25.8614 20.7518 25.5954 21.6492 25.1374C21.7872 25.0667 21.8138 25.048 21.7952 25.032C21.7818 25.0234 21.1952 24.2367 20.4918 23.2854L19.2125 21.5574L17.6098 19.1854C17.0766 18.3917 16.5384 17.6015 15.9952 16.8147C15.9892 16.8134 15.9832 17.8674 15.9798 19.1547C15.9752 21.408 15.9732 21.498 15.9452 21.5514C15.918 21.6138 15.8692 21.6645 15.8078 21.694C15.7578 21.7187 15.7145 21.7234 15.4778 21.7234H15.2065L15.1345 21.678C15.09 21.6501 15.0538 21.6107 15.0298 21.564L14.9965 21.4934L15.0005 18.358L15.0052 15.2214L15.0532 15.16C15.0859 15.1217 15.1252 15.0894 15.1692 15.0647C15.2332 15.0334 15.2585 15.0307 15.5292 15.0307C15.8478 15.0307 15.9012 15.0427 15.9838 15.1334C16.6326 16.0989 17.2759 17.068 17.9138 18.0407C18.9654 19.6344 20.0176 21.2278 21.0705 22.8207L22.3372 24.74L22.4012 24.698C23.011 24.2928 23.5639 23.8078 24.0452 23.256C25.053 22.1024 25.7067 20.6825 25.9278 19.1667C25.9918 18.7267 25.9998 18.5974 25.9998 18.0014C25.9998 17.406 25.9918 17.276 25.9278 16.8367C25.4932 13.8327 23.3552 11.3087 20.4558 10.3734C19.9137 10.201 19.3555 10.0842 18.7898 10.0247C18.4319 10.0077 18.0735 9.99952 17.7152 10H17.7145ZM20.4272 14.8114C20.6585 14.8114 20.6992 14.8147 20.7512 14.8427C20.7884 14.8615 20.8215 14.8875 20.8487 14.9192C20.8758 14.9509 20.8963 14.9877 20.9092 15.0274C20.9212 15.0674 20.9245 15.9374 20.9212 17.8967L20.9172 20.7087L20.4212 19.9487L19.9238 19.1887V17.1447C19.9238 15.8234 19.9305 15.08 19.9392 15.0447C19.9503 15.003 19.9699 14.964 19.9966 14.9301C20.0233 14.8962 20.0566 14.868 20.0945 14.8474C20.1585 14.814 20.1812 14.8114 20.4278 14.8114H20.4272Z" fill="black"/>
</g>
<defs>
<clipPath id="clip0_286_2939">
<rect width="16" height="16" fill="white" transform="translate(10 10)"/>
</clipPath>
</defs>
</svg>
