<svg width="36" height="36" viewBox="0 0 36 36" fill="none" xmlns="http://www.w3.org/2000/svg">
<circle opacity="0.1" cx="18" cy="18" r="18" fill="#55ACEE"/>
<g clip-path="url(#clip0_286_2983)">
<path d="M25 14.2174C24.5132 14.4206 23.9969 14.554 23.4681 14.6131C24.0189 14.3021 24.4417 13.8096 24.6408 13.2228C24.1173 13.5156 23.5445 13.7218 22.9472 13.8327C22.4607 13.3443 21.7676 13.0391 21.0004 13.0391C19.5275 13.0391 18.3332 14.1642 18.3332 15.552C18.3332 15.749 18.3568 15.9407 18.4023 16.1247C16.1857 16.0199 14.2205 15.0194 12.905 13.4991C12.6754 13.8702 12.5439 14.3019 12.5439 14.7624C12.5439 15.6343 13.0148 16.4034 13.7304 16.8541C13.3069 16.8416 12.8927 16.7338 12.5223 16.5397C12.5222 16.5503 12.5222 16.5608 12.5222 16.5714C12.5222 17.7889 13.4415 18.8046 14.6616 19.0355C14.2688 19.1361 13.8569 19.1508 13.4572 19.0785C13.7965 20.0769 14.7815 20.8034 15.9486 20.8238C15.0358 21.4977 13.8858 21.8995 12.6362 21.8995C12.4209 21.8995 12.2087 21.8876 12 21.8644C13.1803 22.5774 14.5822 22.9934 16.0884 22.9934C20.9942 22.9934 23.6768 19.1642 23.6768 15.8434C23.6768 15.7344 23.6743 15.626 23.6691 15.5183C24.1913 15.1626 24.6419 14.7221 25 14.2174" fill="#55ACEE"/>
</g>
<defs>
<clipPath id="clip0_286_2983">
<rect width="13" height="10" fill="white" transform="translate(12 13)"/>
</clipPath>
</defs>
</svg>
