<svg width="87" height="15" viewBox="0 0 87 15" fill="none" xmlns="http://www.w3.org/2000/svg">
<path d="M7.84001 14.9602C11.62 14.9602 14.58 12.4602 15.08 8.74024H11.86C11.5 10.8002 9.92002 12.2402 7.88002 12.2402C5.42002 12.2402 3.76001 10.2802 3.76001 7.46024C3.76001 4.66024 5.42002 2.72024 7.88002 2.72024C9.92002 2.72024 11.52 4.14024 11.86 6.20024H15.08C14.58 2.52024 11.62 0.000244141 7.84001 0.000244141C3.80001 0.000244141 0.640015 3.26024 0.640015 7.46024C0.640015 11.6802 3.80001 14.9602 7.84001 14.9602Z" fill="#6D58F5"/>
<path d="M21.6827 14.8602C24.7827 14.8602 27.1027 12.4202 27.1027 9.32024C27.1027 6.20024 24.7827 3.78024 21.6827 3.78024C18.5827 3.78024 16.2627 6.20024 16.2627 9.32024C16.2627 12.4202 18.5827 14.8602 21.6827 14.8602ZM21.6827 12.4002C20.3027 12.4002 19.1227 11.3002 19.1227 9.32024C19.1227 7.34024 20.3027 6.26024 21.6827 6.26024C23.0627 6.26024 24.2427 7.34024 24.2427 9.32024C24.2427 11.3002 23.0627 12.4002 21.6827 12.4002Z" fill="#6D58F5"/>
<path d="M28.1767 9.32024C28.1767 12.4402 30.0367 14.8602 32.9167 14.8602C34.2967 14.8602 35.4567 14.2402 36.2967 13.1202V14.6602H38.8367V0.300244H36.0767V5.36024C35.2767 4.34024 34.1967 3.78024 32.9167 3.78024C30.0367 3.78024 28.1767 6.16024 28.1767 9.32024ZM31.0367 9.32024C31.0367 7.28024 32.1767 6.24024 33.5367 6.24024C34.8967 6.24024 36.0567 7.26025 36.0567 9.28024C36.0567 11.3002 34.9167 12.3802 33.5367 12.3802C32.1767 12.3802 31.0367 11.3202 31.0367 9.32024Z" fill="#6D58F5"/>
<path d="M45.9581 14.8402C48.5581 14.8402 50.4181 13.4602 51.0181 11.0402H48.2581C47.9381 12.1002 47.1181 12.7002 45.8981 12.7002C44.4781 12.7002 43.6381 11.7402 43.4581 10.0002H51.0381C51.5381 6.52025 49.2981 3.78024 45.9181 3.78024C42.8381 3.78024 40.6181 6.10024 40.6181 9.28024C40.6181 12.6202 42.7581 14.8402 45.9581 14.8402ZM45.8581 5.82024C47.1781 5.82024 48.0181 6.76024 48.0981 8.24024H43.4981C43.7381 6.66024 44.5581 5.82024 45.8581 5.82024Z" fill="#6D58F5"/>
<path d="M55.6802 8.84025C55.6802 7.12025 56.6202 6.24024 57.7202 6.24024C58.9802 6.24024 59.6002 7.12024 59.6002 8.70024V14.6602H62.3602V7.76024C62.3602 5.18024 60.8802 3.78024 58.7402 3.78024C57.3402 3.78024 56.2402 4.44024 55.4602 5.50024V3.98024H52.9002V14.6602H55.6802V8.84025Z" fill="#6D58F5"/>
<path d="M80.9553 0.300244H77.9153V9.26024C77.9153 11.0402 77.0553 12.2402 75.0553 12.2402C73.0353 12.2402 72.1753 11.0402 72.1753 9.26024V0.300244H69.1353V9.20024C69.1353 12.6002 71.2553 14.9602 75.0553 14.9602C78.7953 14.9602 80.9553 12.6002 80.9553 9.20024V0.300244Z" fill="#6D58F5"/>
<path d="M86.9028 14.6602V0.300244H83.8628V14.6602H86.9028Z" fill="#6D58F5"/>
</svg>
